<mxfile host="65bd71144e">
    <diagram name="Page-1" id="0eeWLhEhAbjt74QTUGkZ">
        <mxGraphModel dx="3409" dy="2094" grid="1" gridSize="10" guides="1" tooltips="1" connect="1" arrows="1" fold="1" page="1" pageScale="1" pageWidth="827" pageHeight="1169" math="0" shadow="0">
            <root>
                <mxCell id="0"/>
                <mxCell id="1" parent="0"/>
                <mxCell id="109" value="network.txt" style="swimlane;fontStyle=0;childLayout=stackLayout;horizontal=1;startSize=30;horizontalStack=0;resizeParent=1;resizeParentMax=0;resizeLast=0;collapsible=1;marginBottom=0;whiteSpace=wrap;html=1;" vertex="1" parent="1">
                    <mxGeometry x="-320" y="260" width="551.29" height="1050" as="geometry"/>
                </mxCell>
                <mxCell id="110" value="Node n_1, n_2, n_3" style="text;strokeColor=none;fillColor=none;align=left;verticalAlign=middle;spacingLeft=4;spacingRight=4;overflow=hidden;points=[[0,0.5],[1,0.5]];portConstraint=eastwest;rotatable=0;whiteSpace=wrap;html=1;" vertex="1" parent="109">
                    <mxGeometry y="30" width="551.29" height="30" as="geometry"/>
                </mxCell>
                <mxCell id="111" value="&lt;span style=&quot;color: rgb(0, 0, 0); font-family: Helvetica; font-size: 12px; font-style: normal; font-variant-ligatures: normal; font-variant-caps: normal; font-weight: 400; letter-spacing: normal; orphans: 2; text-align: center; text-indent: 0px; text-transform: none; widows: 2; word-spacing: 0px; -webkit-text-stroke-width: 0px; background-color: rgb(251, 251, 251); text-decoration-thickness: initial; text-decoration-style: initial; text-decoration-color: initial; float: none; display: inline !important;&quot;&gt;Reserve district&amp;nbsp;&lt;/span&gt;d_1_resint, d_2_resint" style="text;strokeColor=none;fillColor=none;align=left;verticalAlign=middle;spacingLeft=4;spacingRight=4;overflow=hidden;points=[[0,0.5],[1,0.5]];portConstraint=eastwest;rotatable=0;whiteSpace=wrap;html=1;" vertex="1" parent="109">
                    <mxGeometry y="60" width="551.29" height="30" as="geometry"/>
                </mxCell>
                <mxCell id="112" value="&lt;span style=&quot;border-color: var(--border-color); color: rgb(0, 0, 0); font-family: Helvetica; font-size: 12px; font-style: normal; font-variant-ligatures: normal; font-variant-caps: normal; font-weight: 400; letter-spacing: normal; orphans: 2; text-indent: 0px; text-transform: none; widows: 2; word-spacing: 0px; -webkit-text-stroke-width: 0px; text-decoration-thickness: initial; text-decoration-style: initial; text-decoration-color: initial; text-align: center; background-color: rgb(251, 251, 251); float: none; display: inline !important;&quot;&gt;Reserve district&amp;nbsp;&lt;/span&gt;&lt;span style=&quot;color: rgb(0, 0, 0); font-family: Helvetica; font-size: 12px; font-style: normal; font-variant-ligatures: normal; font-variant-caps: normal; font-weight: 400; letter-spacing: normal; orphans: 2; text-align: left; text-indent: 0px; text-transform: none; widows: 2; word-spacing: 0px; -webkit-text-stroke-width: 0px; background-color: rgb(251, 251, 251); text-decoration-thickness: initial; text-decoration-style: initial; text-decoration-color: initial; float: none; display: inline !important;&quot;&gt;d_1_resexc, d_2_resexc&lt;/span&gt;" style="text;strokeColor=none;fillColor=none;align=left;verticalAlign=middle;spacingLeft=4;spacingRight=4;overflow=hidden;points=[[0,0.5],[1,0.5]];portConstraint=eastwest;rotatable=0;whiteSpace=wrap;html=1;" vertex="1" parent="109">
                    <mxGeometry y="90" width="551.29" height="30" as="geometry"/>
                </mxCell>
                <mxCell id="113" value="Thermal prod_1, prod_2, prod_3, prod_4" style="text;strokeColor=none;fillColor=none;align=left;verticalAlign=middle;spacingLeft=4;spacingRight=4;overflow=hidden;points=[[0,0.5],[1,0.5]];portConstraint=eastwest;rotatable=0;whiteSpace=wrap;html=1;" vertex="1" parent="109">
                    <mxGeometry y="120" width="551.29" height="30" as="geometry"/>
                </mxCell>
                <mxCell id="114" value="Link with reserve l12, l13, l23" style="text;strokeColor=none;fillColor=none;align=left;verticalAlign=middle;spacingLeft=4;spacingRight=4;overflow=hidden;points=[[0,0.5],[1,0.5]];portConstraint=eastwest;rotatable=0;whiteSpace=wrap;html=1;" vertex="1" parent="109">
                    <mxGeometry y="150" width="551.29" height="30" as="geometry"/>
                </mxCell>
                <mxCell id="115" value="Reserve converter conv_res_Int_ext_1, conv_res_Int_ext_2" style="text;strokeColor=none;fillColor=none;align=left;verticalAlign=middle;spacingLeft=4;spacingRight=4;overflow=hidden;points=[[0,0.5],[1,0.5]];portConstraint=eastwest;rotatable=0;whiteSpace=wrap;html=1;" vertex="1" parent="109">
                    <mxGeometry y="180" width="551.29" height="30" as="geometry"/>
                </mxCell>
                <mxCell id="116" value="Reserve demand demand_resint_1,&amp;nbsp;demand_resint_2" style="text;strokeColor=none;fillColor=none;align=left;verticalAlign=middle;spacingLeft=4;spacingRight=4;overflow=hidden;points=[[0,0.5],[1,0.5]];portConstraint=eastwest;rotatable=0;whiteSpace=wrap;html=1;" vertex="1" parent="109">
                    <mxGeometry y="210" width="551.29" height="30" as="geometry"/>
                </mxCell>
                <mxCell id="117" value="nl12.flow1 -&amp;gt; n_1.flow_n" style="text;strokeColor=none;fillColor=none;align=left;verticalAlign=middle;spacingLeft=4;spacingRight=4;overflow=hidden;points=[[0,0.5],[1,0.5]];portConstraint=eastwest;rotatable=0;whiteSpace=wrap;html=1;" vertex="1" parent="109">
                    <mxGeometry y="240" width="551.29" height="30" as="geometry"/>
                </mxCell>
                <mxCell id="118" value="nl12.flow2 -&amp;gt; n_2.flow_n" style="text;strokeColor=none;fillColor=none;align=left;verticalAlign=middle;spacingLeft=4;spacingRight=4;overflow=hidden;points=[[0,0.5],[1,0.5]];portConstraint=eastwest;rotatable=0;whiteSpace=wrap;html=1;" vertex="1" parent="109">
                    <mxGeometry y="270" width="551.29" height="30" as="geometry"/>
                </mxCell>
                <mxCell id="119" value="nl13.flow1 -&amp;gt; n_1.flow_n" style="text;strokeColor=none;fillColor=none;align=left;verticalAlign=middle;spacingLeft=4;spacingRight=4;overflow=hidden;points=[[0,0.5],[1,0.5]];portConstraint=eastwest;rotatable=0;whiteSpace=wrap;html=1;" vertex="1" parent="109">
                    <mxGeometry y="300" width="551.29" height="30" as="geometry"/>
                </mxCell>
                <mxCell id="120" value="nl13.flow2 -&amp;gt; n_3.flow_n" style="text;strokeColor=none;fillColor=none;align=left;verticalAlign=middle;spacingLeft=4;spacingRight=4;overflow=hidden;points=[[0,0.5],[1,0.5]];portConstraint=eastwest;rotatable=0;whiteSpace=wrap;html=1;" vertex="1" parent="109">
                    <mxGeometry y="330" width="551.29" height="30" as="geometry"/>
                </mxCell>
                <mxCell id="121" value="nl23.flow2 -&amp;gt; n_3.flow_n" style="text;strokeColor=none;fillColor=none;align=left;verticalAlign=middle;spacingLeft=4;spacingRight=4;overflow=hidden;points=[[0,0.5],[1,0.5]];portConstraint=eastwest;rotatable=0;whiteSpace=wrap;html=1;" vertex="1" parent="109">
                    <mxGeometry y="360" width="551.29" height="30" as="geometry"/>
                </mxCell>
                <mxCell id="122" value="nl23.flow1 -&amp;gt; n_2.flow_n" style="text;strokeColor=none;fillColor=none;align=left;verticalAlign=middle;spacingLeft=4;spacingRight=4;overflow=hidden;points=[[0,0.5],[1,0.5]];portConstraint=eastwest;rotatable=0;whiteSpace=wrap;html=1;" vertex="1" parent="109">
                    <mxGeometry y="390" width="551.29" height="30" as="geometry"/>
                </mxCell>
                <mxCell id="123" value="prod_4.flow_p -&amp;gt; n_1.flow_n" style="text;strokeColor=none;fillColor=none;align=left;verticalAlign=middle;spacingLeft=4;spacingRight=4;overflow=hidden;points=[[0,0.5],[1,0.5]];portConstraint=eastwest;rotatable=0;whiteSpace=wrap;html=1;" vertex="1" parent="109">
                    <mxGeometry y="420" width="551.29" height="30" as="geometry"/>
                </mxCell>
                <mxCell id="124" value="prod_1.flow_p -&amp;gt; n_2.flow_n" style="text;strokeColor=none;fillColor=none;align=left;verticalAlign=middle;spacingLeft=4;spacingRight=4;overflow=hidden;points=[[0,0.5],[1,0.5]];portConstraint=eastwest;rotatable=0;whiteSpace=wrap;html=1;" vertex="1" parent="109">
                    <mxGeometry y="450" width="551.29" height="30" as="geometry"/>
                </mxCell>
                <mxCell id="125" value="prod_2.flow_p -&amp;gt; n_3.flow_n" style="text;strokeColor=none;fillColor=none;align=left;verticalAlign=middle;spacingLeft=4;spacingRight=4;overflow=hidden;points=[[0,0.5],[1,0.5]];portConstraint=eastwest;rotatable=0;whiteSpace=wrap;html=1;" vertex="1" parent="109">
                    <mxGeometry y="480" width="551.29" height="30" as="geometry"/>
                </mxCell>
                <mxCell id="126" value="prod_3.flow_p -&amp;gt; n_3.flow_n" style="text;strokeColor=none;fillColor=none;align=left;verticalAlign=middle;spacingLeft=4;spacingRight=4;overflow=hidden;points=[[0,0.5],[1,0.5]];portConstraint=eastwest;rotatable=0;whiteSpace=wrap;html=1;" vertex="1" parent="109">
                    <mxGeometry y="510" width="551.29" height="30" as="geometry"/>
                </mxCell>
                <mxCell id="127" value="prod_4.res_r -&amp;gt;&amp;nbsp; d_1_resint.res_di" style="text;strokeColor=none;fillColor=none;align=left;verticalAlign=middle;spacingLeft=4;spacingRight=4;overflow=hidden;points=[[0,0.5],[1,0.5]];portConstraint=eastwest;rotatable=0;whiteSpace=wrap;html=1;" vertex="1" parent="109">
                    <mxGeometry y="540" width="551.29" height="30" as="geometry"/>
                </mxCell>
                <mxCell id="128" value="prod_1.res_r -&amp;gt;&amp;nbsp; d_2_resint.res_di" style="text;strokeColor=none;fillColor=none;align=left;verticalAlign=middle;spacingLeft=4;spacingRight=4;overflow=hidden;points=[[0,0.5],[1,0.5]];portConstraint=eastwest;rotatable=0;whiteSpace=wrap;html=1;" vertex="1" parent="109">
                    <mxGeometry y="570" width="551.29" height="30" as="geometry"/>
                </mxCell>
                <mxCell id="129" value="prod_2.res_r -&amp;gt;&amp;nbsp; d_2_resint.res_di" style="text;strokeColor=none;fillColor=none;align=left;verticalAlign=middle;spacingLeft=4;spacingRight=4;overflow=hidden;points=[[0,0.5],[1,0.5]];portConstraint=eastwest;rotatable=0;whiteSpace=wrap;html=1;" vertex="1" parent="109">
                    <mxGeometry y="600" width="551.29" height="30" as="geometry"/>
                </mxCell>
                <mxCell id="130" value="prod_3.res_r -&amp;gt;&amp;nbsp; d_2_resint.res_di" style="text;strokeColor=none;fillColor=none;align=left;verticalAlign=middle;spacingLeft=4;spacingRight=4;overflow=hidden;points=[[0,0.5],[1,0.5]];portConstraint=eastwest;rotatable=0;whiteSpace=wrap;html=1;" vertex="1" parent="109">
                    <mxGeometry y="630" width="551.29" height="30" as="geometry"/>
                </mxCell>
                <mxCell id="131" value="demand_resint_1.res_d -&amp;gt;d_1_resint.res_di" style="text;strokeColor=none;fillColor=none;align=left;verticalAlign=middle;spacingLeft=4;spacingRight=4;overflow=hidden;points=[[0,0.5],[1,0.5]];portConstraint=eastwest;rotatable=0;whiteSpace=wrap;html=1;" vertex="1" parent="109">
                    <mxGeometry y="660" width="551.29" height="30" as="geometry"/>
                </mxCell>
                <mxCell id="132" value="demand_resint_2.res_d -&amp;gt;d_2_resint.res_di" style="text;strokeColor=none;fillColor=none;align=left;verticalAlign=middle;spacingLeft=4;spacingRight=4;overflow=hidden;points=[[0,0.5],[1,0.5]];portConstraint=eastwest;rotatable=0;whiteSpace=wrap;html=1;" vertex="1" parent="109">
                    <mxGeometry y="690" width="551.29" height="30" as="geometry"/>
                </mxCell>
                <mxCell id="133" value="demand_resexc_1.res_d -&amp;gt;d_1_resexc.res_di" style="text;strokeColor=none;fillColor=none;align=left;verticalAlign=middle;spacingLeft=4;spacingRight=4;overflow=hidden;points=[[0,0.5],[1,0.5]];portConstraint=eastwest;rotatable=0;whiteSpace=wrap;html=1;" vertex="1" parent="109">
                    <mxGeometry y="720" width="551.29" height="30" as="geometry"/>
                </mxCell>
                <mxCell id="134" value="demand_resexc_2.res_d -&amp;gt;d_2_resexc.res_di" style="text;strokeColor=none;fillColor=none;align=left;verticalAlign=middle;spacingLeft=4;spacingRight=4;overflow=hidden;points=[[0,0.5],[1,0.5]];portConstraint=eastwest;rotatable=0;whiteSpace=wrap;html=1;" vertex="1" parent="109">
                    <mxGeometry y="750" width="551.29" height="30" as="geometry"/>
                </mxCell>
                <mxCell id="135" value="conv_res_Int_ext_1.res_in -&amp;gt; d_1_resint.res_di" style="text;strokeColor=none;fillColor=none;align=left;verticalAlign=middle;spacingLeft=4;spacingRight=4;overflow=hidden;points=[[0,0.5],[1,0.5]];portConstraint=eastwest;rotatable=0;whiteSpace=wrap;html=1;" vertex="1" parent="109">
                    <mxGeometry y="780" width="551.29" height="30" as="geometry"/>
                </mxCell>
                <mxCell id="136" value="conv_res_Int_ext_1.res_out -&amp;gt; d_1_resexc.res_di" style="text;strokeColor=none;fillColor=none;align=left;verticalAlign=middle;spacingLeft=4;spacingRight=4;overflow=hidden;points=[[0,0.5],[1,0.5]];portConstraint=eastwest;rotatable=0;whiteSpace=wrap;html=1;" vertex="1" parent="109">
                    <mxGeometry y="810" width="551.29" height="30" as="geometry"/>
                </mxCell>
                <mxCell id="137" value="conv_res_Int_ext_2.res_in -&amp;gt; d_2_resint.res_di" style="text;strokeColor=none;fillColor=none;align=left;verticalAlign=middle;spacingLeft=4;spacingRight=4;overflow=hidden;points=[[0,0.5],[1,0.5]];portConstraint=eastwest;rotatable=0;whiteSpace=wrap;html=1;" vertex="1" parent="109">
                    <mxGeometry y="840" width="551.29" height="30" as="geometry"/>
                </mxCell>
                <mxCell id="138" value="conv_res_Int_ext_2.res_out -&amp;gt; d_2_resexc.res_di" style="text;strokeColor=none;fillColor=none;align=left;verticalAlign=middle;spacingLeft=4;spacingRight=4;overflow=hidden;points=[[0,0.5],[1,0.5]];portConstraint=eastwest;rotatable=0;whiteSpace=wrap;html=1;" vertex="1" parent="109">
                    <mxGeometry y="870" width="551.29" height="30" as="geometry"/>
                </mxCell>
                <mxCell id="139" value="l12.res_from -&amp;gt;d_1_resexc.res_di" style="text;strokeColor=none;fillColor=none;align=left;verticalAlign=middle;spacingLeft=4;spacingRight=4;overflow=hidden;points=[[0,0.5],[1,0.5]];portConstraint=eastwest;rotatable=0;whiteSpace=wrap;html=1;" vertex="1" parent="109">
                    <mxGeometry y="900" width="551.29" height="30" as="geometry"/>
                </mxCell>
                <mxCell id="140" value="l12.res_to -&amp;gt;d_2_resexc.res_di" style="text;strokeColor=none;fillColor=none;align=left;verticalAlign=middle;spacingLeft=4;spacingRight=4;overflow=hidden;points=[[0,0.5],[1,0.5]];portConstraint=eastwest;rotatable=0;whiteSpace=wrap;html=1;" vertex="1" parent="109">
                    <mxGeometry y="930" width="551.29" height="30" as="geometry"/>
                </mxCell>
                <mxCell id="141" value="&lt;span style=&quot;color: rgb(0, 0, 0); font-family: Helvetica; font-size: 12px; font-style: normal; font-variant-ligatures: normal; font-variant-caps: normal; font-weight: 400; letter-spacing: normal; orphans: 2; text-align: left; text-indent: 0px; text-transform: none; widows: 2; word-spacing: 0px; -webkit-text-stroke-width: 0px; background-color: rgb(251, 251, 251); text-decoration-thickness: initial; text-decoration-style: initial; text-decoration-color: initial; float: none; display: inline !important;&quot;&gt;l13.res_from -&amp;gt;d_1_resexc.res_di&lt;/span&gt;" style="text;strokeColor=none;fillColor=none;align=left;verticalAlign=middle;spacingLeft=4;spacingRight=4;overflow=hidden;points=[[0,0.5],[1,0.5]];portConstraint=eastwest;rotatable=0;whiteSpace=wrap;html=1;" vertex="1" parent="109">
                    <mxGeometry y="960" width="551.29" height="30" as="geometry"/>
                </mxCell>
                <mxCell id="142" value="&lt;span style=&quot;border-color: var(--border-color); color: rgb(0, 0, 0); font-family: Helvetica; font-size: 12px; font-style: normal; font-variant-ligatures: normal; font-variant-caps: normal; font-weight: 400; letter-spacing: normal; orphans: 2; text-align: left; text-indent: 0px; text-transform: none; widows: 2; word-spacing: 0px; -webkit-text-stroke-width: 0px; text-decoration-thickness: initial; text-decoration-style: initial; text-decoration-color: initial; background-color: rgb(251, 251, 251); float: none; display: inline !important;&quot;&gt;l13.res_to -&amp;gt;d_2_resexc.res_di&lt;/span&gt;" style="text;strokeColor=none;fillColor=none;align=left;verticalAlign=middle;spacingLeft=4;spacingRight=4;overflow=hidden;points=[[0,0.5],[1,0.5]];portConstraint=eastwest;rotatable=0;whiteSpace=wrap;html=1;" vertex="1" parent="109">
                    <mxGeometry y="990" width="551.29" height="30" as="geometry"/>
                </mxCell>
                <mxCell id="143" style="text;strokeColor=none;fillColor=none;align=left;verticalAlign=middle;spacingLeft=4;spacingRight=4;overflow=hidden;points=[[0,0.5],[1,0.5]];portConstraint=eastwest;rotatable=0;whiteSpace=wrap;html=1;" vertex="1" parent="109">
                    <mxGeometry y="1020" width="551.29" height="30" as="geometry"/>
                </mxCell>
                <mxCell id="144" value="&lt;font style=&quot;&quot;&gt;&lt;b style=&quot;&quot;&gt;&lt;span style=&quot;font-size: 32px;&quot;&gt;Système Physique&lt;/span&gt;&lt;br&gt;Modélisation de 2 districts dans lesquels sont définis un besoin interne ( à satisfaire au sein du district) et un besoin échangeable (à satisfaire au sein du district ou dans l'autre district en réservant de la capacité) de 2 réserves ( avec une différenciation hausse/baisse). La modélisation est en NTC.&lt;br&gt;&lt;/b&gt;&lt;/font&gt;" style="text;html=1;strokeColor=none;fillColor=none;align=center;verticalAlign=middle;whiteSpace=wrap;rounded=0;" vertex="1" parent="1">
                    <mxGeometry x="-841.9399999999999" y="-370" width="541.29" height="120" as="geometry"/>
                </mxCell>
                <mxCell id="145" value="&lt;font style=&quot;font-size: 32px;&quot;&gt;&lt;b&gt;Données&lt;/b&gt;&lt;/font&gt;" style="text;html=1;strokeColor=none;fillColor=none;align=center;verticalAlign=middle;whiteSpace=wrap;rounded=0;" vertex="1" parent="1">
                    <mxGeometry x="-178.71" y="150" width="380" height="120" as="geometry"/>
                </mxCell>
                <mxCell id="146" value="" style="group" vertex="1" connectable="0" parent="1">
                    <mxGeometry x="453.73" y="160" width="1160" height="651" as="geometry"/>
                </mxCell>
                <mxCell id="147" value="" style="group" vertex="1" connectable="0" parent="146">
                    <mxGeometry x="200" width="80" height="110" as="geometry"/>
                </mxCell>
                <mxCell id="148" value="n_1" style="ellipse;whiteSpace=wrap;html=1;aspect=fixed;fillColor=#dae8fc;strokeColor=#6c8ebf;" vertex="1" parent="147">
                    <mxGeometry width="80" height="80" as="geometry"/>
                </mxCell>
                <mxCell id="149" value="flow_n" style="rounded=0;whiteSpace=wrap;html=1;fillColor=#dae8fc;strokeColor=#6c8ebf;" vertex="1" parent="147">
                    <mxGeometry x="15" y="80" width="50" height="30" as="geometry"/>
                </mxCell>
                <mxCell id="150" value="" style="group" vertex="1" connectable="0" parent="146">
                    <mxGeometry x="370" width="80" height="110" as="geometry"/>
                </mxCell>
                <mxCell id="151" value="n_2" style="ellipse;whiteSpace=wrap;html=1;aspect=fixed;fillColor=#dae8fc;strokeColor=#6c8ebf;" vertex="1" parent="150">
                    <mxGeometry width="80" height="80" as="geometry"/>
                </mxCell>
                <mxCell id="152" value="flow_n" style="rounded=0;whiteSpace=wrap;html=1;fillColor=#dae8fc;strokeColor=#6c8ebf;" vertex="1" parent="150">
                    <mxGeometry x="15" y="80" width="50" height="30" as="geometry"/>
                </mxCell>
                <mxCell id="153" value="" style="group" vertex="1" connectable="0" parent="146">
                    <mxGeometry x="530" width="80" height="110" as="geometry"/>
                </mxCell>
                <mxCell id="154" value="n_3" style="ellipse;whiteSpace=wrap;html=1;aspect=fixed;fillColor=#dae8fc;strokeColor=#6c8ebf;" vertex="1" parent="153">
                    <mxGeometry width="80" height="80" as="geometry"/>
                </mxCell>
                <mxCell id="155" value="flow_n" style="rounded=0;whiteSpace=wrap;html=1;fillColor=#dae8fc;strokeColor=#6c8ebf;" vertex="1" parent="153">
                    <mxGeometry x="15" y="80" width="50" height="30" as="geometry"/>
                </mxCell>
                <mxCell id="156" value="" style="group" vertex="1" connectable="0" parent="146">
                    <mxGeometry x="840" y="250" width="80" height="90" as="geometry"/>
                </mxCell>
                <mxCell id="157" value="prod_1" style="rounded=1;whiteSpace=wrap;html=1;" vertex="1" parent="156">
                    <mxGeometry y="30" width="80" height="30" as="geometry"/>
                </mxCell>
                <mxCell id="158" value="flow_p" style="rounded=0;whiteSpace=wrap;html=1;fillColor=#dae8fc;strokeColor=#6c8ebf;" vertex="1" parent="156">
                    <mxGeometry x="15" width="50" height="30" as="geometry"/>
                </mxCell>
                <mxCell id="159" value="res_r" style="rounded=0;whiteSpace=wrap;html=1;fillColor=#d5e8d4;strokeColor=#82b366;" vertex="1" parent="156">
                    <mxGeometry x="15" y="60" width="50" height="30" as="geometry"/>
                </mxCell>
                <mxCell id="160" value="" style="group" vertex="1" connectable="0" parent="146">
                    <mxGeometry x="-124" y="250" width="80" height="90" as="geometry"/>
                </mxCell>
                <mxCell id="161" value="prod_4" style="rounded=1;whiteSpace=wrap;html=1;" vertex="1" parent="160">
                    <mxGeometry y="30" width="80" height="30" as="geometry"/>
                </mxCell>
                <mxCell id="162" value="flow_p" style="rounded=0;whiteSpace=wrap;html=1;fillColor=#dae8fc;strokeColor=#6c8ebf;" vertex="1" parent="160">
                    <mxGeometry x="15" width="50" height="30" as="geometry"/>
                </mxCell>
                <mxCell id="163" value="res_r" style="rounded=0;whiteSpace=wrap;html=1;fillColor=#D5E8D4;strokeColor=#d79b00;" vertex="1" parent="160">
                    <mxGeometry x="15" y="60" width="50" height="30" as="geometry"/>
                </mxCell>
                <mxCell id="164" value="" style="group" vertex="1" connectable="0" parent="146">
                    <mxGeometry x="960" y="250" width="80" height="90" as="geometry"/>
                </mxCell>
                <mxCell id="165" value="prod_2" style="rounded=1;whiteSpace=wrap;html=1;" vertex="1" parent="164">
                    <mxGeometry y="30" width="80" height="30" as="geometry"/>
                </mxCell>
                <mxCell id="166" value="flow_p" style="rounded=0;whiteSpace=wrap;html=1;fillColor=#dae8fc;strokeColor=#6c8ebf;" vertex="1" parent="164">
                    <mxGeometry x="15" width="50" height="30" as="geometry"/>
                </mxCell>
                <mxCell id="167" value="res_r" style="rounded=0;whiteSpace=wrap;html=1;fillColor=#d5e8d4;strokeColor=#82b366;" vertex="1" parent="164">
                    <mxGeometry x="15" y="60" width="50" height="30" as="geometry"/>
                </mxCell>
                <mxCell id="168" value="" style="group" vertex="1" connectable="0" parent="146">
                    <mxGeometry x="1080" y="250" width="80" height="90" as="geometry"/>
                </mxCell>
                <mxCell id="169" value="prod_3" style="rounded=1;whiteSpace=wrap;html=1;" vertex="1" parent="168">
                    <mxGeometry y="30" width="80" height="30" as="geometry"/>
                </mxCell>
                <mxCell id="170" value="flow_p" style="rounded=0;whiteSpace=wrap;html=1;fillColor=#dae8fc;strokeColor=#6c8ebf;" vertex="1" parent="168">
                    <mxGeometry x="15" width="50" height="30" as="geometry"/>
                </mxCell>
                <mxCell id="171" value="res_r" style="rounded=0;whiteSpace=wrap;html=1;fillColor=#d5e8d4;strokeColor=#82b366;" vertex="1" parent="168">
                    <mxGeometry x="15" y="60" width="50" height="30" as="geometry"/>
                </mxCell>
                <mxCell id="172" value="" style="group" vertex="1" connectable="0" parent="146">
                    <mxGeometry x="175.99999999999997" y="230" width="121.73000000000002" height="150" as="geometry"/>
                </mxCell>
                <mxCell id="173" value="l_12" style="ellipse;whiteSpace=wrap;html=1;" vertex="1" parent="172">
                    <mxGeometry y="30" width="120" height="80" as="geometry"/>
                </mxCell>
                <mxCell id="174" value="" style="group;fillColor=#dae8fc;strokeColor=#6c8ebf;" vertex="1" connectable="0" parent="172">
                    <mxGeometry width="120" height="30" as="geometry"/>
                </mxCell>
                <mxCell id="175" value="flow_from" style="rounded=0;whiteSpace=wrap;html=1;fillColor=#dae8fc;strokeColor=#6c8ebf;" vertex="1" parent="174">
                    <mxGeometry width="54.54545454545454" height="30" as="geometry"/>
                </mxCell>
                <mxCell id="176" value="flow_to" style="rounded=0;whiteSpace=wrap;html=1;fillColor=#dae8fc;strokeColor=#6c8ebf;" vertex="1" parent="174">
                    <mxGeometry x="54.54545454545454" width="65.45454545454545" height="30" as="geometry"/>
                </mxCell>
                <mxCell id="177" value="" style="group" vertex="1" connectable="0" parent="172">
                    <mxGeometry x="-4.27" y="109" width="120.87" height="30" as="geometry"/>
                </mxCell>
                <mxCell id="178" value="res_from" style="rounded=0;whiteSpace=wrap;html=1;fillColor=#D5E8D4;strokeColor=#d79b00;" vertex="1" parent="177">
                    <mxGeometry width="60.435" height="30" as="geometry"/>
                </mxCell>
                <mxCell id="179" value="res_to" style="rounded=0;whiteSpace=wrap;html=1;fillColor=#D5E8D4;strokeColor=#d79b00;" vertex="1" parent="177">
                    <mxGeometry x="60.435" width="60.435" height="30" as="geometry"/>
                </mxCell>
                <mxCell id="180" value="" style="group" vertex="1" connectable="0" parent="146">
                    <mxGeometry x="341.73" y="230" width="121.73000000000002" height="140" as="geometry"/>
                </mxCell>
                <mxCell id="181" value="l_13" style="ellipse;whiteSpace=wrap;html=1;" vertex="1" parent="180">
                    <mxGeometry y="30" width="120" height="80" as="geometry"/>
                </mxCell>
                <mxCell id="182" value="" style="group;fillColor=#dae8fc;strokeColor=#6c8ebf;" vertex="1" connectable="0" parent="180">
                    <mxGeometry width="110" height="30" as="geometry"/>
                </mxCell>
                <mxCell id="183" value="flow_from" style="rounded=0;whiteSpace=wrap;html=1;fillColor=#dae8fc;strokeColor=#6c8ebf;" vertex="1" parent="182">
                    <mxGeometry width="55.00000000000001" height="30" as="geometry"/>
                </mxCell>
                <mxCell id="184" value="flow_to" style="rounded=0;whiteSpace=wrap;html=1;fillColor=#dae8fc;strokeColor=#6c8ebf;" vertex="1" parent="182">
                    <mxGeometry x="55.00000000000001" width="55.00000000000001" height="30" as="geometry"/>
                </mxCell>
                <mxCell id="185" value="" style="group;fillColor=#D5E8D4;" vertex="1" connectable="0" parent="180">
                    <mxGeometry y="109" width="120" height="30" as="geometry"/>
                </mxCell>
                <mxCell id="186" value="res_from" style="rounded=0;whiteSpace=wrap;html=1;fillColor=#D5E8D4;strokeColor=#d79b00;" vertex="1" parent="185">
                    <mxGeometry width="60" height="30" as="geometry"/>
                </mxCell>
                <mxCell id="187" value="res_to" style="rounded=0;whiteSpace=wrap;html=1;fillColor=#D5E8D4;strokeColor=#d79b00;" vertex="1" parent="185">
                    <mxGeometry x="60" width="60" height="30" as="geometry"/>
                </mxCell>
                <mxCell id="188" value="" style="group" vertex="1" connectable="0" parent="146">
                    <mxGeometry x="531.73" y="230" width="121.73000000000002" height="140" as="geometry"/>
                </mxCell>
                <mxCell id="189" value="l_23" style="ellipse;whiteSpace=wrap;html=1;" vertex="1" parent="188">
                    <mxGeometry y="30" width="120" height="80" as="geometry"/>
                </mxCell>
                <mxCell id="190" value="" style="group;fillColor=#dae8fc;strokeColor=#6c8ebf;" vertex="1" connectable="0" parent="188">
                    <mxGeometry width="110" height="30" as="geometry"/>
                </mxCell>
                <mxCell id="191" value="flow_from" style="rounded=0;whiteSpace=wrap;html=1;fillColor=#dae8fc;strokeColor=#6c8ebf;" vertex="1" parent="190">
                    <mxGeometry width="55.00000000000001" height="30" as="geometry"/>
                </mxCell>
                <mxCell id="192" value="flow_to" style="rounded=0;whiteSpace=wrap;html=1;fillColor=#dae8fc;strokeColor=#6c8ebf;" vertex="1" parent="190">
                    <mxGeometry x="55.00000000000001" width="55.00000000000001" height="30" as="geometry"/>
                </mxCell>
                <mxCell id="193" value="" style="group;fillColor=#ffe6cc;strokeColor=#d79b00;" vertex="1" connectable="0" parent="188">
                    <mxGeometry y="110" width="120" height="30" as="geometry"/>
                </mxCell>
                <mxCell id="194" value="res_from" style="rounded=0;whiteSpace=wrap;html=1;fillColor=#D5E8D4;strokeColor=#d79b00;" vertex="1" parent="193">
                    <mxGeometry width="60" height="30" as="geometry"/>
                </mxCell>
                <mxCell id="195" value="res_to" style="rounded=0;whiteSpace=wrap;html=1;fillColor=#D5E8D4;strokeColor=#d79b00;" vertex="1" parent="193">
                    <mxGeometry x="60" width="60" height="30" as="geometry"/>
                </mxCell>
                <mxCell id="196" value="" style="group" vertex="1" connectable="0" parent="146">
                    <mxGeometry x="790" y="510" width="80" height="110" as="geometry"/>
                </mxCell>
                <mxCell id="197" value="d_2_resint" style="ellipse;whiteSpace=wrap;html=1;aspect=fixed;fillColor=#d5e8d4;strokeColor=#82b366;" vertex="1" parent="196">
                    <mxGeometry y="30" width="80" height="80" as="geometry"/>
                </mxCell>
                <mxCell id="198" value="res_di" style="rounded=0;whiteSpace=wrap;html=1;fillColor=#d5e8d4;strokeColor=#82b366;" vertex="1" parent="196">
                    <mxGeometry x="15" width="50" height="30" as="geometry"/>
                </mxCell>
                <mxCell id="199" value="" style="group" vertex="1" connectable="0" parent="146">
                    <mxGeometry x="-74" y="490" width="86" height="130" as="geometry"/>
                </mxCell>
                <mxCell id="200" value="d_1_resint" style="ellipse;whiteSpace=wrap;html=1;aspect=fixed;fillColor=#D5E8D4;strokeColor=#d79b00;" vertex="1" parent="199">
                    <mxGeometry y="50" width="80" height="80" as="geometry"/>
                </mxCell>
                <mxCell id="201" value="res_di" style="rounded=0;whiteSpace=wrap;html=1;fillColor=#D5E8D4;strokeColor=#d79b00;" vertex="1" parent="199">
                    <mxGeometry x="11.730000000000011" y="20" width="50" height="30" as="geometry"/>
                </mxCell>
                <mxCell id="202" value="" style="group" vertex="1" connectable="0" parent="146">
                    <mxGeometry x="906" y="560" width="100" height="90" as="geometry"/>
                </mxCell>
                <mxCell id="203" value="demand_resint_2" style="rounded=1;whiteSpace=wrap;html=1;" vertex="1" parent="202">
                    <mxGeometry y="60" width="100" height="30" as="geometry"/>
                </mxCell>
                <mxCell id="204" value="res_d" style="rounded=0;whiteSpace=wrap;html=1;fillColor=#d5e8d4;strokeColor=#82b366;" vertex="1" parent="202">
                    <mxGeometry x="15" y="30" width="50" height="30" as="geometry"/>
                </mxCell>
                <mxCell id="205" value="" style="endArrow=classic;html=1;rounded=0;entryX=1;entryY=1;entryDx=0;entryDy=0;" edge="1" parent="146" target="155">
                    <mxGeometry width="50" height="50" relative="1" as="geometry">
                        <mxPoint x="976" y="250" as="sourcePoint"/>
                        <mxPoint x="1126" y="260" as="targetPoint"/>
                    </mxGeometry>
                </mxCell>
                <mxCell id="206" value="" style="endArrow=classic;html=1;rounded=0;exitX=0.75;exitY=0;exitDx=0;exitDy=0;" edge="1" parent="146" source="162">
                    <mxGeometry width="50" height="50" relative="1" as="geometry">
                        <mxPoint x="445" y="113" as="sourcePoint"/>
                        <mxPoint x="216" y="90" as="targetPoint"/>
                    </mxGeometry>
                </mxCell>
                <mxCell id="207" value="" style="endArrow=classic;html=1;rounded=0;entryX=1;entryY=0.25;entryDx=0;entryDy=0;exitX=0.25;exitY=0;exitDx=0;exitDy=0;" edge="1" parent="146" source="170" target="155">
                    <mxGeometry width="50" height="50" relative="1" as="geometry">
                        <mxPoint x="1156" y="80" as="sourcePoint"/>
                        <mxPoint x="1116" y="250" as="targetPoint"/>
                    </mxGeometry>
                </mxCell>
                <mxCell id="208" value="" style="endArrow=classic;html=1;rounded=0;exitX=0.5;exitY=0;exitDx=0;exitDy=0;entryX=0.25;entryY=1;entryDx=0;entryDy=0;" edge="1" parent="146" source="176" target="152">
                    <mxGeometry width="50" height="50" relative="1" as="geometry">
                        <mxPoint x="249" y="300" as="sourcePoint"/>
                        <mxPoint x="246" y="120" as="targetPoint"/>
                    </mxGeometry>
                </mxCell>
                <mxCell id="209" value="" style="endArrow=classic;html=1;rounded=0;exitX=0.5;exitY=0;exitDx=0;exitDy=0;entryX=0.75;entryY=1;entryDx=0;entryDy=0;" edge="1" parent="146" source="183" target="149">
                    <mxGeometry width="50" height="50" relative="1" as="geometry">
                        <mxPoint x="249" y="300" as="sourcePoint"/>
                        <mxPoint x="246" y="120" as="targetPoint"/>
                    </mxGeometry>
                </mxCell>
                <mxCell id="210" value="" style="endArrow=classic;html=1;rounded=0;exitX=0.5;exitY=0;exitDx=0;exitDy=0;entryX=0.75;entryY=1;entryDx=0;entryDy=0;" edge="1" parent="146" source="191" target="152">
                    <mxGeometry width="50" height="50" relative="1" as="geometry">
                        <mxPoint x="465" y="300" as="sourcePoint"/>
                        <mxPoint x="556" y="110" as="targetPoint"/>
                    </mxGeometry>
                </mxCell>
                <mxCell id="211" value="" style="endArrow=classic;html=1;rounded=0;entryX=1;entryY=0.5;entryDx=0;entryDy=0;exitX=0;exitY=0.5;exitDx=0;exitDy=0;" edge="1" parent="146" source="158" target="152">
                    <mxGeometry width="50" height="50" relative="1" as="geometry">
                        <mxPoint x="986" y="260" as="sourcePoint"/>
                        <mxPoint x="605" y="120" as="targetPoint"/>
                    </mxGeometry>
                </mxCell>
                <mxCell id="212" value="" style="endArrow=classic;html=1;rounded=0;exitX=0.75;exitY=1;exitDx=0;exitDy=0;entryX=0.5;entryY=0;entryDx=0;entryDy=0;" edge="1" parent="146" source="163" target="201">
                    <mxGeometry width="50" height="50" relative="1" as="geometry">
                        <mxPoint x="890" y="350" as="sourcePoint"/>
                        <mxPoint x="96" y="490" as="targetPoint"/>
                    </mxGeometry>
                </mxCell>
                <mxCell id="213" value="" style="group" vertex="1" connectable="0" parent="146">
                    <mxGeometry x="476" y="510" width="80" height="110" as="geometry"/>
                </mxCell>
                <mxCell id="214" value="d_2_resexc" style="ellipse;whiteSpace=wrap;html=1;aspect=fixed;fillColor=#1D911D;strokeColor=#82b366;" vertex="1" parent="213">
                    <mxGeometry y="30" width="80" height="80" as="geometry"/>
                </mxCell>
                <mxCell id="215" value="res_di" style="rounded=0;whiteSpace=wrap;html=1;fillColor=#1D911D;strokeColor=#82b366;" vertex="1" parent="213">
                    <mxGeometry x="15" width="50" height="30" as="geometry"/>
                </mxCell>
                <mxCell id="216" value="demand_resexc_2" style="rounded=1;whiteSpace=wrap;html=1;" vertex="1" parent="146">
                    <mxGeometry x="562" y="620" width="114" height="30" as="geometry"/>
                </mxCell>
                <mxCell id="217" value="flow_d" style="rounded=0;whiteSpace=wrap;html=1;fillColor=#d5e8d4;strokeColor=#82b366;" vertex="1" parent="146">
                    <mxGeometry x="577" y="590" width="50" height="30" as="geometry"/>
                </mxCell>
                <mxCell id="218" value="" style="endArrow=classic;html=1;rounded=0;entryX=0.5;entryY=1;entryDx=0;entryDy=0;exitX=0.75;exitY=0;exitDx=0;exitDy=0;" edge="1" parent="146" source="192" target="155">
                    <mxGeometry width="50" height="50" relative="1" as="geometry">
                        <mxPoint x="656" y="290" as="sourcePoint"/>
                        <mxPoint x="433" y="120" as="targetPoint"/>
                    </mxGeometry>
                </mxCell>
                <mxCell id="219" value="" style="endArrow=classic;html=1;rounded=0;entryX=1;entryY=0.75;entryDx=0;entryDy=0;exitX=0.5;exitY=0;exitDx=0;exitDy=0;" edge="1" parent="146" source="217" target="215">
                    <mxGeometry width="50" height="50" relative="1" as="geometry">
                        <mxPoint x="581" y="575" as="sourcePoint"/>
                        <mxPoint x="521" y="692" as="targetPoint"/>
                    </mxGeometry>
                </mxCell>
                <mxCell id="220" value="" style="endArrow=classic;html=1;rounded=0;exitX=0.5;exitY=1;exitDx=0;exitDy=0;entryX=1;entryY=0;entryDx=0;entryDy=0;" edge="1" parent="146" source="167" target="198">
                    <mxGeometry width="50" height="50" relative="1" as="geometry">
                        <mxPoint x="890" y="350" as="sourcePoint"/>
                        <mxPoint x="846" y="520" as="targetPoint"/>
                    </mxGeometry>
                </mxCell>
                <mxCell id="221" value="" style="endArrow=classic;html=1;rounded=0;exitX=0.5;exitY=0;exitDx=0;exitDy=0;entryX=1;entryY=0.5;entryDx=0;entryDy=0;" edge="1" parent="146" source="204" target="198">
                    <mxGeometry width="50" height="50" relative="1" as="geometry">
                        <mxPoint x="1118" y="350" as="sourcePoint"/>
                        <mxPoint x="863" y="530" as="targetPoint"/>
                    </mxGeometry>
                </mxCell>
                <mxCell id="222" value="" style="endArrow=classic;html=1;rounded=0;exitX=0.25;exitY=1;exitDx=0;exitDy=0;entryX=1;entryY=0.25;entryDx=0;entryDy=0;" edge="1" parent="146" source="171" target="198">
                    <mxGeometry width="50" height="50" relative="1" as="geometry">
                        <mxPoint x="1010" y="350" as="sourcePoint"/>
                        <mxPoint x="856" y="530" as="targetPoint"/>
                    </mxGeometry>
                </mxCell>
                <mxCell id="223" value="" style="endArrow=classic;html=1;rounded=0;exitX=0.5;exitY=1;exitDx=0;exitDy=0;entryX=0.75;entryY=0;entryDx=0;entryDy=0;" edge="1" parent="146" source="159" target="198">
                    <mxGeometry width="50" height="50" relative="1" as="geometry">
                        <mxPoint x="986" y="260" as="sourcePoint"/>
                        <mxPoint x="856" y="510" as="targetPoint"/>
                    </mxGeometry>
                </mxCell>
                <mxCell id="224" value="" style="endArrow=classic;html=1;rounded=0;exitX=0.5;exitY=1;exitDx=0;exitDy=0;entryX=0.5;entryY=0;entryDx=0;entryDy=0;" edge="1" parent="146" source="178" target="240">
                    <mxGeometry width="50" height="50" relative="1" as="geometry">
                        <mxPoint x="81" y="505" as="sourcePoint"/>
                        <mxPoint x="1.2699999999999818" y="502.75" as="targetPoint"/>
                    </mxGeometry>
                </mxCell>
                <mxCell id="225" value="" style="endArrow=classic;html=1;rounded=0;exitX=0.5;exitY=1;exitDx=0;exitDy=0;entryX=0.75;entryY=0;entryDx=0;entryDy=0;" edge="1" parent="146" source="186" target="240">
                    <mxGeometry width="50" height="50" relative="1" as="geometry">
                        <mxPoint x="81" y="543" as="sourcePoint"/>
                        <mxPoint x="1.2699999999999818" y="532.75" as="targetPoint"/>
                    </mxGeometry>
                </mxCell>
                <mxCell id="226" value="" style="endArrow=classic;html=1;rounded=0;entryX=0;entryY=0;entryDx=0;entryDy=0;" edge="1" parent="146" source="179" target="215">
                    <mxGeometry width="50" height="50" relative="1" as="geometry">
                        <mxPoint x="81" y="475" as="sourcePoint"/>
                        <mxPoint x="396" y="550" as="targetPoint"/>
                    </mxGeometry>
                </mxCell>
                <mxCell id="227" value="" style="endArrow=classic;html=1;rounded=0;entryX=0.5;entryY=0;entryDx=0;entryDy=0;exitX=0.25;exitY=1;exitDx=0;exitDy=0;" edge="1" parent="146" source="187" target="215">
                    <mxGeometry width="50" height="50" relative="1" as="geometry">
                        <mxPoint x="288" y="379" as="sourcePoint"/>
                        <mxPoint x="561" y="640" as="targetPoint"/>
                    </mxGeometry>
                </mxCell>
                <mxCell id="228" value="conv_res_Int_ext_2" style="rounded=1;whiteSpace=wrap;html=1;" vertex="1" parent="146">
                    <mxGeometry x="629" y="535.5" width="111" height="30" as="geometry"/>
                </mxCell>
                <mxCell id="229" value="" style="endArrow=classic;html=1;rounded=0;entryX=0;entryY=0.5;entryDx=0;entryDy=0;exitX=1;exitY=0.5;exitDx=0;exitDy=0;" edge="1" parent="146" source="231" target="198">
                    <mxGeometry width="50" height="50" relative="1" as="geometry">
                        <mxPoint x="650" y="515.5" as="sourcePoint"/>
                        <mxPoint x="805" y="533" as="targetPoint"/>
                    </mxGeometry>
                </mxCell>
                <mxCell id="230" value="res_out" style="rounded=0;whiteSpace=wrap;html=1;fillColor=#D5E8D4;strokeColor=#d79b00;" vertex="1" parent="146">
                    <mxGeometry x="626" y="518.5" width="50" height="17" as="geometry"/>
                </mxCell>
                <mxCell id="231" value="res_in" style="rounded=0;whiteSpace=wrap;html=1;fillColor=#d5e8d4;strokeColor=#82b366;" vertex="1" parent="146">
                    <mxGeometry x="676" y="518.5" width="50" height="17" as="geometry"/>
                </mxCell>
                <mxCell id="232" value="" style="endArrow=classic;html=1;rounded=0;entryX=1;entryY=0.5;entryDx=0;entryDy=0;exitX=0;exitY=0.5;exitDx=0;exitDy=0;" edge="1" parent="146" source="230" target="215">
                    <mxGeometry width="50" height="50" relative="1" as="geometry">
                        <mxPoint x="601" y="590.5" as="sourcePoint"/>
                        <mxPoint x="561" y="548.5" as="targetPoint"/>
                    </mxGeometry>
                </mxCell>
                <mxCell id="233" value="conv_res_Int_ext_1" style="rounded=1;whiteSpace=wrap;html=1;" vertex="1" parent="146">
                    <mxGeometry x="65" y="535.5" width="111" height="30" as="geometry"/>
                </mxCell>
                <mxCell id="234" value="" style="endArrow=classic;html=1;rounded=0;entryX=0;entryY=0.5;entryDx=0;entryDy=0;exitX=1;exitY=0.5;exitDx=0;exitDy=0;" edge="1" parent="146" source="236" target="240">
                    <mxGeometry width="50" height="50" relative="1" as="geometry">
                        <mxPoint x="206" y="537" as="sourcePoint"/>
                        <mxPoint x="248" y="536.5" as="targetPoint"/>
                    </mxGeometry>
                </mxCell>
                <mxCell id="235" value="res_in" style="rounded=0;whiteSpace=wrap;html=1;fillColor=#D5E8D4;strokeColor=#82B366;" vertex="1" parent="146">
                    <mxGeometry x="62" y="518.5" width="50" height="17" as="geometry"/>
                </mxCell>
                <mxCell id="236" value="res_out" style="rounded=0;whiteSpace=wrap;html=1;fillColor=#D5E8D4;strokeColor=#82b366;" vertex="1" parent="146">
                    <mxGeometry x="112" y="518.5" width="50" height="17" as="geometry"/>
                </mxCell>
                <mxCell id="237" value="" style="endArrow=classic;html=1;rounded=0;entryX=1;entryY=0.5;entryDx=0;entryDy=0;exitX=0;exitY=0.5;exitDx=0;exitDy=0;" edge="1" parent="146" source="235" target="201">
                    <mxGeometry width="50" height="50" relative="1" as="geometry">
                        <mxPoint x="33.730000000000004" y="534.75" as="sourcePoint"/>
                        <mxPoint x="-16.27" y="532.75" as="targetPoint"/>
                    </mxGeometry>
                </mxCell>
                <mxCell id="238" value="" style="group" vertex="1" connectable="0" parent="146">
                    <mxGeometry x="234" y="510" width="80" height="110" as="geometry"/>
                </mxCell>
                <mxCell id="239" value="d_1_resexc" style="ellipse;whiteSpace=wrap;html=1;aspect=fixed;fillColor=#1D911D;strokeColor=#82b366;" vertex="1" parent="238">
                    <mxGeometry y="30" width="80" height="80" as="geometry"/>
                </mxCell>
                <mxCell id="240" value="res_di" style="rounded=0;whiteSpace=wrap;html=1;fillColor=#1D911D;strokeColor=#82b366;" vertex="1" parent="238">
                    <mxGeometry x="15" width="50" height="30" as="geometry"/>
                </mxCell>
                <mxCell id="241" value="demand_resexc_1" style="rounded=1;whiteSpace=wrap;html=1;" vertex="1" parent="146">
                    <mxGeometry x="116" y="621" width="106" height="30" as="geometry"/>
                </mxCell>
                <mxCell id="242" value="flow_d" style="rounded=0;whiteSpace=wrap;html=1;fillColor=#d5e8d4;strokeColor=#82b366;" vertex="1" parent="146">
                    <mxGeometry x="131" y="591" width="50" height="30" as="geometry"/>
                </mxCell>
                <mxCell id="243" value="" style="endArrow=classic;html=1;rounded=0;entryX=0;entryY=0.75;entryDx=0;entryDy=0;exitX=0.5;exitY=0;exitDx=0;exitDy=0;" edge="1" parent="146" source="242" target="240">
                    <mxGeometry width="50" height="50" relative="1" as="geometry">
                        <mxPoint x="276" y="735.5" as="sourcePoint"/>
                        <mxPoint x="219" y="707.5" as="targetPoint"/>
                    </mxGeometry>
                </mxCell>
                <mxCell id="244" value="" style="endArrow=classic;html=1;rounded=0;exitX=0.5;exitY=0;exitDx=0;exitDy=0;" edge="1" parent="1" source="175">
                    <mxGeometry width="50" height="50" relative="1" as="geometry">
                        <mxPoint x="516.73" y="360" as="sourcePoint"/>
                        <mxPoint x="689.73" y="270" as="targetPoint"/>
                    </mxGeometry>
                </mxCell>
                <mxCell id="245" value="" style="endArrow=classic;html=1;rounded=0;exitX=0.5;exitY=0;exitDx=0;exitDy=0;" edge="1" parent="1" source="184">
                    <mxGeometry width="50" height="50" relative="1" as="geometry">
                        <mxPoint x="868.73" y="460" as="sourcePoint"/>
                        <mxPoint x="999.73" y="260" as="targetPoint"/>
                    </mxGeometry>
                </mxCell>
                <mxCell id="246" value="" style="group" vertex="1" connectable="0" parent="1">
                    <mxGeometry x="290" y="772.25" width="90" height="90" as="geometry"/>
                </mxCell>
                <mxCell id="247" value="demand_resint_1" style="rounded=1;whiteSpace=wrap;html=1;" vertex="1" parent="246">
                    <mxGeometry x="-30.27" y="5.5" width="100.27" height="30" as="geometry"/>
                </mxCell>
                <mxCell id="248" value="res_d" style="rounded=0;whiteSpace=wrap;html=1;fillColor=#d5e8d4;strokeColor=#82b366;" vertex="1" parent="246">
                    <mxGeometry x="-10.269999999999982" y="-22.25" width="50" height="30" as="geometry"/>
                </mxCell>
                <mxCell id="249" value="" style="endArrow=classic;html=1;rounded=0;entryX=0;entryY=0.75;entryDx=0;entryDy=0;" edge="1" parent="1" source="248" target="201">
                    <mxGeometry width="50" height="50" relative="1" as="geometry">
                        <mxPoint x="332.2300000000005" y="740" as="sourcePoint"/>
                        <mxPoint x="1249" y="707.25" as="targetPoint"/>
                    </mxGeometry>
                </mxCell>
                <mxCell id="250" value="Thermal : Model" style="swimlane;fontStyle=0;childLayout=stackLayout;horizontal=1;startSize=30;horizontalStack=0;resizeParent=1;resizeParentMax=0;resizeLast=0;collapsible=1;marginBottom=0;whiteSpace=wrap;html=1;fillColor=#CCFFCC;" vertex="1" parent="1">
                    <mxGeometry x="130" y="-790" width="240" height="720" as="geometry"/>
                </mxCell>
                <mxCell id="251" value="p : Variable" style="text;strokeColor=none;fillColor=none;align=left;verticalAlign=middle;spacingLeft=4;spacingRight=4;overflow=hidden;points=[[0,0.5],[1,0.5]];portConstraint=eastwest;rotatable=0;whiteSpace=wrap;html=1;" vertex="1" parent="250">
                    <mxGeometry y="30" width="240" height="30" as="geometry"/>
                </mxCell>
                <mxCell id="252" value="r1_up : Variable (reserve participation)" style="text;strokeColor=none;fillColor=none;align=left;verticalAlign=middle;spacingLeft=4;spacingRight=4;overflow=hidden;points=[[0,0.5],[1,0.5]];portConstraint=eastwest;rotatable=0;whiteSpace=wrap;html=1;" vertex="1" parent="250">
                    <mxGeometry y="60" width="240" height="30" as="geometry"/>
                </mxCell>
                <mxCell id="253" value="r1_down : Variable (reserve participation)" style="text;strokeColor=none;fillColor=none;align=left;verticalAlign=middle;spacingLeft=4;spacingRight=4;overflow=hidden;points=[[0,0.5],[1,0.5]];portConstraint=eastwest;rotatable=0;whiteSpace=wrap;html=1;" vertex="1" parent="250">
                    <mxGeometry y="90" width="240" height="30" as="geometry"/>
                </mxCell>
                <mxCell id="254" value="r2_up : Variable (reserve participation)" style="text;strokeColor=none;fillColor=none;align=left;verticalAlign=middle;spacingLeft=4;spacingRight=4;overflow=hidden;points=[[0,0.5],[1,0.5]];portConstraint=eastwest;rotatable=0;whiteSpace=wrap;html=1;" vertex="1" parent="250">
                    <mxGeometry y="120" width="240" height="30" as="geometry"/>
                </mxCell>
                <mxCell id="255" value="r2_down : Variable (reserve participation)" style="text;strokeColor=none;fillColor=none;align=left;verticalAlign=middle;spacingLeft=4;spacingRight=4;overflow=hidden;points=[[0,0.5],[1,0.5]];portConstraint=eastwest;rotatable=0;whiteSpace=wrap;html=1;" vertex="1" parent="250">
                    <mxGeometry y="150" width="240" height="30" as="geometry"/>
                </mxCell>
                <mxCell id="256" value="" style="endArrow=none;dashed=1;html=1;rounded=0;exitX=0;exitY=0.5;exitDx=0;exitDy=0;entryX=1;entryY=0.5;entryDx=0;entryDy=0;" edge="1" parent="250">
                    <mxGeometry width="50" height="50" relative="1" as="geometry">
                        <mxPoint y="179.29" as="sourcePoint"/>
                        <mxPoint x="200" y="179.29" as="targetPoint"/>
                    </mxGeometry>
                </mxCell>
                <mxCell id="257" value="pmax : Parameter" style="text;strokeColor=none;fillColor=none;align=left;verticalAlign=middle;spacingLeft=4;spacingRight=4;overflow=hidden;points=[[0,0.5],[1,0.5]];portConstraint=eastwest;rotatable=0;whiteSpace=wrap;html=1;" vertex="1" parent="250">
                    <mxGeometry y="180" width="240" height="30" as="geometry"/>
                </mxCell>
                <mxCell id="258" value="r1_up_max : Parameter" style="text;strokeColor=none;fillColor=none;align=left;verticalAlign=middle;spacingLeft=4;spacingRight=4;overflow=hidden;points=[[0,0.5],[1,0.5]];portConstraint=eastwest;rotatable=0;whiteSpace=wrap;html=1;" vertex="1" parent="250">
                    <mxGeometry y="210" width="240" height="30" as="geometry"/>
                </mxCell>
                <mxCell id="259" value="r1_down_max : Parameter" style="text;strokeColor=none;fillColor=none;align=left;verticalAlign=middle;spacingLeft=4;spacingRight=4;overflow=hidden;points=[[0,0.5],[1,0.5]];portConstraint=eastwest;rotatable=0;whiteSpace=wrap;html=1;" vertex="1" parent="250">
                    <mxGeometry y="240" width="240" height="30" as="geometry"/>
                </mxCell>
                <mxCell id="260" value="r2_up_max : Parameter" style="text;strokeColor=none;fillColor=none;align=left;verticalAlign=middle;spacingLeft=4;spacingRight=4;overflow=hidden;points=[[0,0.5],[1,0.5]];portConstraint=eastwest;rotatable=0;whiteSpace=wrap;html=1;" vertex="1" parent="250">
                    <mxGeometry y="270" width="240" height="30" as="geometry"/>
                </mxCell>
                <mxCell id="261" value="r2_down_max : Parameter" style="text;strokeColor=none;fillColor=none;align=left;verticalAlign=middle;spacingLeft=4;spacingRight=4;overflow=hidden;points=[[0,0.5],[1,0.5]];portConstraint=eastwest;rotatable=0;whiteSpace=wrap;html=1;" vertex="1" parent="250">
                    <mxGeometry y="300" width="240" height="30" as="geometry"/>
                </mxCell>
                <mxCell id="262" value="&amp;nbsp;p+ r1_up&amp;nbsp;+ r2_up&amp;nbsp;&amp;lt;=&amp;nbsp; pmax" style="text;strokeColor=none;fillColor=none;align=left;verticalAlign=middle;spacingLeft=4;spacingRight=4;overflow=hidden;points=[[0,0.5],[1,0.5]];portConstraint=eastwest;rotatable=0;whiteSpace=wrap;html=1;" vertex="1" parent="250">
                    <mxGeometry y="330" width="240" height="30" as="geometry"/>
                </mxCell>
                <mxCell id="263" value="&lt;span style=&quot;color: rgb(0, 0, 0); font-family: Helvetica; font-size: 12px; font-style: normal; font-variant-ligatures: normal; font-variant-caps: normal; font-weight: 400; letter-spacing: normal; orphans: 2; text-align: left; text-indent: 0px; text-transform: none; widows: 2; word-spacing: 0px; -webkit-text-stroke-width: 0px; background-color: rgb(251, 251, 251); text-decoration-thickness: initial; text-decoration-style: initial; text-decoration-color: initial; float: none; display: inline !important;&quot;&gt;0 &amp;lt;= p - ( r1_down + r2_down )&lt;br&gt;&lt;/span&gt;" style="text;strokeColor=none;fillColor=none;align=left;verticalAlign=middle;spacingLeft=4;spacingRight=4;overflow=hidden;points=[[0,0.5],[1,0.5]];portConstraint=eastwest;rotatable=0;whiteSpace=wrap;html=1;" vertex="1" parent="250">
                    <mxGeometry y="360" width="240" height="30" as="geometry"/>
                </mxCell>
                <mxCell id="264" value="0 &amp;lt;=&amp;nbsp;r1_up&amp;nbsp;&amp;lt;= r1_up_max" style="text;strokeColor=none;fillColor=none;align=left;verticalAlign=middle;spacingLeft=4;spacingRight=4;overflow=hidden;points=[[0,0.5],[1,0.5]];portConstraint=eastwest;rotatable=0;whiteSpace=wrap;html=1;" vertex="1" parent="250">
                    <mxGeometry y="390" width="240" height="30" as="geometry"/>
                </mxCell>
                <mxCell id="265" value="0 &amp;lt;= r1_down &amp;lt;= r1_down_max" style="text;strokeColor=none;fillColor=none;align=left;verticalAlign=middle;spacingLeft=4;spacingRight=4;overflow=hidden;points=[[0,0.5],[1,0.5]];portConstraint=eastwest;rotatable=0;whiteSpace=wrap;html=1;" vertex="1" parent="250">
                    <mxGeometry y="420" width="240" height="30" as="geometry"/>
                </mxCell>
                <mxCell id="266" value="0 &amp;lt;= r2_up&amp;nbsp;&amp;lt;= r2_up_max" style="text;strokeColor=none;fillColor=none;align=left;verticalAlign=middle;spacingLeft=4;spacingRight=4;overflow=hidden;points=[[0,0.5],[1,0.5]];portConstraint=eastwest;rotatable=0;whiteSpace=wrap;html=1;" vertex="1" parent="250">
                    <mxGeometry y="450" width="240" height="30" as="geometry"/>
                </mxCell>
                <mxCell id="267" value="0 &amp;lt;= r2_down &amp;lt;= r2_down_max" style="text;strokeColor=none;fillColor=none;align=left;verticalAlign=middle;spacingLeft=4;spacingRight=4;overflow=hidden;points=[[0,0.5],[1,0.5]];portConstraint=eastwest;rotatable=0;whiteSpace=wrap;html=1;" vertex="1" parent="250">
                    <mxGeometry y="480" width="240" height="30" as="geometry"/>
                </mxCell>
                <mxCell id="268" value="" style="endArrow=none;dashed=1;html=1;rounded=0;exitX=0;exitY=0.5;exitDx=0;exitDy=0;entryX=1;entryY=0.5;entryDx=0;entryDy=0;" edge="1" parent="250">
                    <mxGeometry width="50" height="50" relative="1" as="geometry">
                        <mxPoint y="330" as="sourcePoint"/>
                        <mxPoint x="200" y="330" as="targetPoint"/>
                    </mxGeometry>
                </mxCell>
                <mxCell id="269" value="" style="endArrow=none;dashed=1;html=1;rounded=0;exitX=0;exitY=0.5;exitDx=0;exitDy=0;entryX=1;entryY=0.5;entryDx=0;entryDy=0;" edge="1" parent="250">
                    <mxGeometry width="50" height="50" relative="1" as="geometry">
                        <mxPoint y="509.2" as="sourcePoint"/>
                        <mxPoint x="200" y="509.2" as="targetPoint"/>
                    </mxGeometry>
                </mxCell>
                <mxCell id="270" value="flow_p : Flow" style="text;strokeColor=none;fillColor=none;align=left;verticalAlign=middle;spacingLeft=4;spacingRight=4;overflow=hidden;points=[[0,0.5],[1,0.5]];portConstraint=eastwest;rotatable=0;whiteSpace=wrap;html=1;" vertex="1" parent="250">
                    <mxGeometry y="510" width="240" height="30" as="geometry"/>
                </mxCell>
                <mxCell id="271" value="res : Res" style="text;strokeColor=none;fillColor=none;align=left;verticalAlign=middle;spacingLeft=4;spacingRight=4;overflow=hidden;points=[[0,0.5],[1,0.5]];portConstraint=eastwest;rotatable=0;whiteSpace=wrap;html=1;" vertex="1" parent="250">
                    <mxGeometry y="540" width="240" height="30" as="geometry"/>
                </mxCell>
                <mxCell id="272" value="" style="endArrow=none;dashed=1;html=1;rounded=0;exitX=0;exitY=0.5;exitDx=0;exitDy=0;entryX=1;entryY=0.5;entryDx=0;entryDy=0;" edge="1" parent="250">
                    <mxGeometry width="50" height="50" relative="1" as="geometry">
                        <mxPoint y="569.2" as="sourcePoint"/>
                        <mxPoint x="200" y="569.2" as="targetPoint"/>
                    </mxGeometry>
                </mxCell>
                <mxCell id="273" value="flow_p.f = p" style="text;strokeColor=none;fillColor=none;align=left;verticalAlign=middle;spacingLeft=4;spacingRight=4;overflow=hidden;points=[[0,0.5],[1,0.5]];portConstraint=eastwest;rotatable=0;whiteSpace=wrap;html=1;" vertex="1" parent="250">
                    <mxGeometry y="570" width="240" height="30" as="geometry"/>
                </mxCell>
                <mxCell id="274" value="res.r1_up = r1_up" style="text;strokeColor=none;fillColor=none;align=left;verticalAlign=middle;spacingLeft=4;spacingRight=4;overflow=hidden;points=[[0,0.5],[1,0.5]];portConstraint=eastwest;rotatable=0;whiteSpace=wrap;html=1;" vertex="1" parent="250">
                    <mxGeometry y="600" width="240" height="30" as="geometry"/>
                </mxCell>
                <mxCell id="275" value="res.r1_down = r1_down" style="text;strokeColor=none;fillColor=none;align=left;verticalAlign=middle;spacingLeft=4;spacingRight=4;overflow=hidden;points=[[0,0.5],[1,0.5]];portConstraint=eastwest;rotatable=0;whiteSpace=wrap;html=1;" vertex="1" parent="250">
                    <mxGeometry y="630" width="240" height="30" as="geometry"/>
                </mxCell>
                <mxCell id="276" value="res.r2_up = r2_up" style="text;strokeColor=none;fillColor=none;align=left;verticalAlign=middle;spacingLeft=4;spacingRight=4;overflow=hidden;points=[[0,0.5],[1,0.5]];portConstraint=eastwest;rotatable=0;whiteSpace=wrap;html=1;" vertex="1" parent="250">
                    <mxGeometry y="660" width="240" height="30" as="geometry"/>
                </mxCell>
                <mxCell id="277" value="res.r2_down = r2_down" style="text;strokeColor=none;fillColor=none;align=left;verticalAlign=middle;spacingLeft=4;spacingRight=4;overflow=hidden;points=[[0,0.5],[1,0.5]];portConstraint=eastwest;rotatable=0;whiteSpace=wrap;html=1;" vertex="1" parent="250">
                    <mxGeometry y="690" width="240" height="30" as="geometry"/>
                </mxCell>
                <mxCell id="278" value="Flow : PortType" style="swimlane;fontStyle=0;childLayout=stackLayout;horizontal=1;startSize=30;horizontalStack=0;resizeParent=1;resizeParentMax=0;resizeLast=0;collapsible=1;marginBottom=0;whiteSpace=wrap;html=1;fillColor=#CCFFCC;" vertex="1" parent="1">
                    <mxGeometry x="-190" y="-810" width="300" height="60" as="geometry"/>
                </mxCell>
                <mxCell id="279" value="f : PortField" style="text;strokeColor=none;fillColor=none;align=left;verticalAlign=middle;spacingLeft=4;spacingRight=4;overflow=hidden;points=[[0,0.5],[1,0.5]];portConstraint=eastwest;rotatable=0;whiteSpace=wrap;html=1;" vertex="1" parent="278">
                    <mxGeometry y="30" width="300" height="30" as="geometry"/>
                </mxCell>
                <mxCell id="280" value="lInk with reserve : Model" style="swimlane;fontStyle=0;childLayout=stackLayout;horizontal=1;startSize=30;horizontalStack=0;resizeParent=1;resizeParentMax=0;resizeLast=0;collapsible=1;marginBottom=0;whiteSpace=wrap;html=1;fillColor=#CCFFCC;" vertex="1" parent="1">
                    <mxGeometry x="670" y="-790" width="930" height="850" as="geometry"/>
                </mxCell>
                <mxCell id="281" value="f : Variable" style="text;strokeColor=none;fillColor=none;align=left;verticalAlign=middle;spacingLeft=4;spacingRight=4;overflow=hidden;points=[[0,0.5],[1,0.5]];portConstraint=eastwest;rotatable=0;whiteSpace=wrap;html=1;" vertex="1" parent="280">
                    <mxGeometry y="30" width="930" height="30" as="geometry"/>
                </mxCell>
                <mxCell id="282" value="c1_exp_up : Variable&amp;nbsp;" style="text;strokeColor=none;fillColor=none;align=left;verticalAlign=middle;spacingLeft=4;spacingRight=4;overflow=hidden;points=[[0,0.5],[1,0.5]];portConstraint=eastwest;rotatable=0;whiteSpace=wrap;html=1;" vertex="1" parent="280">
                    <mxGeometry y="60" width="930" height="30" as="geometry"/>
                </mxCell>
                <mxCell id="283" value="&lt;span style=&quot;color: rgb(0, 0, 0); font-family: Helvetica; font-size: 12px; font-style: normal; font-variant-ligatures: normal; font-variant-caps: normal; font-weight: 400; letter-spacing: normal; orphans: 2; text-align: left; text-indent: 0px; text-transform: none; widows: 2; word-spacing: 0px; -webkit-text-stroke-width: 0px; background-color: rgb(251, 251, 251); text-decoration-thickness: initial; text-decoration-style: initial; text-decoration-color: initial; float: none; display: inline !important;&quot;&gt;c1_imp_down : Variable&amp;nbsp;&lt;/span&gt;" style="text;strokeColor=none;fillColor=none;align=left;verticalAlign=middle;spacingLeft=4;spacingRight=4;overflow=hidden;points=[[0,0.5],[1,0.5]];portConstraint=eastwest;rotatable=0;whiteSpace=wrap;html=1;" vertex="1" parent="280">
                    <mxGeometry y="90" width="930" height="30" as="geometry"/>
                </mxCell>
                <mxCell id="284" value="&lt;span style=&quot;color: rgb(0, 0, 0); font-family: Helvetica; font-size: 12px; font-style: normal; font-variant-ligatures: normal; font-variant-caps: normal; font-weight: 400; letter-spacing: normal; orphans: 2; text-align: left; text-indent: 0px; text-transform: none; widows: 2; word-spacing: 0px; -webkit-text-stroke-width: 0px; background-color: rgb(251, 251, 251); text-decoration-thickness: initial; text-decoration-style: initial; text-decoration-color: initial; float: none; display: inline !important;&quot;&gt;c1_exp_down : Variable&amp;nbsp;&lt;/span&gt;" style="text;strokeColor=none;fillColor=none;align=left;verticalAlign=middle;spacingLeft=4;spacingRight=4;overflow=hidden;points=[[0,0.5],[1,0.5]];portConstraint=eastwest;rotatable=0;whiteSpace=wrap;html=1;" vertex="1" parent="280">
                    <mxGeometry y="120" width="930" height="30" as="geometry"/>
                </mxCell>
                <mxCell id="285" value="c1_imp_up : Variable&amp;nbsp;" style="text;strokeColor=none;fillColor=none;align=left;verticalAlign=middle;spacingLeft=4;spacingRight=4;overflow=hidden;points=[[0,0.5],[1,0.5]];portConstraint=eastwest;rotatable=0;whiteSpace=wrap;html=1;" vertex="1" parent="280">
                    <mxGeometry y="150" width="930" height="30" as="geometry"/>
                </mxCell>
                <mxCell id="286" value="c2_exp_up : Variable&amp;nbsp;" style="text;strokeColor=none;fillColor=none;align=left;verticalAlign=middle;spacingLeft=4;spacingRight=4;overflow=hidden;points=[[0,0.5],[1,0.5]];portConstraint=eastwest;rotatable=0;whiteSpace=wrap;html=1;" vertex="1" parent="280">
                    <mxGeometry y="180" width="930" height="30" as="geometry"/>
                </mxCell>
                <mxCell id="287" value="c2_imp_down : Variable&amp;nbsp;" style="text;strokeColor=none;fillColor=none;align=left;verticalAlign=middle;spacingLeft=4;spacingRight=4;overflow=hidden;points=[[0,0.5],[1,0.5]];portConstraint=eastwest;rotatable=0;whiteSpace=wrap;html=1;" vertex="1" parent="280">
                    <mxGeometry y="210" width="930" height="30" as="geometry"/>
                </mxCell>
                <mxCell id="288" value="&lt;span style=&quot;color: rgb(0, 0, 0); font-family: Helvetica; font-size: 12px; font-style: normal; font-variant-ligatures: normal; font-variant-caps: normal; font-weight: 400; letter-spacing: normal; orphans: 2; text-align: left; text-indent: 0px; text-transform: none; widows: 2; word-spacing: 0px; -webkit-text-stroke-width: 0px; background-color: rgb(251, 251, 251); text-decoration-thickness: initial; text-decoration-style: initial; text-decoration-color: initial; float: none; display: inline !important;&quot;&gt;c2_exp_down : Variable&amp;nbsp;&lt;/span&gt;" style="text;strokeColor=none;fillColor=none;align=left;verticalAlign=middle;spacingLeft=4;spacingRight=4;overflow=hidden;points=[[0,0.5],[1,0.5]];portConstraint=eastwest;rotatable=0;whiteSpace=wrap;html=1;" vertex="1" parent="280">
                    <mxGeometry y="240" width="930" height="30" as="geometry"/>
                </mxCell>
                <mxCell id="289" value="c2_imp_up : Variable&amp;nbsp;" style="text;strokeColor=none;fillColor=none;align=left;verticalAlign=middle;spacingLeft=4;spacingRight=4;overflow=hidden;points=[[0,0.5],[1,0.5]];portConstraint=eastwest;rotatable=0;whiteSpace=wrap;html=1;" vertex="1" parent="280">
                    <mxGeometry y="270" width="930" height="30" as="geometry"/>
                </mxCell>
                <mxCell id="290" value="alpha : Parameter" style="text;strokeColor=none;fillColor=none;align=left;verticalAlign=middle;spacingLeft=4;spacingRight=4;overflow=hidden;points=[[0,0.5],[1,0.5]];portConstraint=eastwest;rotatable=0;whiteSpace=wrap;html=1;" vertex="1" parent="280">
                    <mxGeometry y="300" width="930" height="30" as="geometry"/>
                </mxCell>
                <mxCell id="291" value="f_max : Parameter" style="text;strokeColor=none;fillColor=none;align=left;verticalAlign=middle;spacingLeft=4;spacingRight=4;overflow=hidden;points=[[0,0.5],[1,0.5]];portConstraint=eastwest;rotatable=0;whiteSpace=wrap;html=1;" vertex="1" parent="280">
                    <mxGeometry y="330" width="930" height="40" as="geometry"/>
                </mxCell>
                <mxCell id="292" value="" style="endArrow=none;dashed=1;html=1;rounded=0;exitX=0;exitY=0.5;exitDx=0;exitDy=0;entryX=1;entryY=0.5;entryDx=0;entryDy=0;" edge="1" parent="280">
                    <mxGeometry width="50" height="50" relative="1" as="geometry">
                        <mxPoint y="360" as="sourcePoint"/>
                        <mxPoint x="210" y="360" as="targetPoint"/>
                    </mxGeometry>
                </mxCell>
                <mxCell id="293" value="-f_max + (c1_exp_down&amp;nbsp; + c1_imp_up + c2_exp_down&amp;nbsp; + c2_imp_up)&amp;nbsp; &amp;nbsp;&amp;lt;= f&amp;nbsp; &amp;lt;= f_max -( c1_exp_up +c2_exp_up&amp;nbsp;+ c1_imp_down + c2_imp_down)&amp;nbsp;&lt;br&gt;&amp;nbsp;" style="text;strokeColor=none;fillColor=none;align=left;verticalAlign=middle;spacingLeft=4;spacingRight=4;overflow=hidden;points=[[0,0.5],[1,0.5]];portConstraint=eastwest;rotatable=0;whiteSpace=wrap;html=1;" vertex="1" parent="280">
                    <mxGeometry y="370" width="930" height="30" as="geometry"/>
                </mxCell>
                <mxCell id="294" value="c1_exp_down&amp;nbsp; + c1_imp_up + c2_exp_down&amp;nbsp; + c2_imp_up +c1_exp_up +c2_exp_up&amp;nbsp;+ c1_imp_down + c2_imp_down &amp;lt;= alpha * f_max" style="text;strokeColor=none;fillColor=none;align=left;verticalAlign=middle;spacingLeft=4;spacingRight=4;overflow=hidden;points=[[0,0.5],[1,0.5]];portConstraint=eastwest;rotatable=0;whiteSpace=wrap;html=1;" vertex="1" parent="280">
                    <mxGeometry y="400" width="930" height="30" as="geometry"/>
                </mxCell>
                <mxCell id="295" value="" style="endArrow=none;dashed=1;html=1;rounded=0;exitX=0;exitY=0.5;exitDx=0;exitDy=0;entryX=1;entryY=0.5;entryDx=0;entryDy=0;" edge="1" parent="280">
                    <mxGeometry width="50" height="50" relative="1" as="geometry">
                        <mxPoint y="430" as="sourcePoint"/>
                        <mxPoint x="210" y="430" as="targetPoint"/>
                    </mxGeometry>
                </mxCell>
                <mxCell id="296" value="flow_to : Flow&amp;nbsp;" style="text;strokeColor=none;fillColor=none;align=left;verticalAlign=middle;spacingLeft=4;spacingRight=4;overflow=hidden;points=[[0,0.5],[1,0.5]];portConstraint=eastwest;rotatable=0;whiteSpace=wrap;html=1;" vertex="1" parent="280">
                    <mxGeometry y="430" width="930" height="30" as="geometry"/>
                </mxCell>
                <mxCell id="297" value="flow_from : Flow" style="text;strokeColor=none;fillColor=none;align=left;verticalAlign=middle;spacingLeft=4;spacingRight=4;overflow=hidden;points=[[0,0.5],[1,0.5]];portConstraint=eastwest;rotatable=0;whiteSpace=wrap;html=1;" vertex="1" parent="280">
                    <mxGeometry y="460" width="930" height="30" as="geometry"/>
                </mxCell>
                <mxCell id="298" value="res_from : Res" style="text;strokeColor=none;fillColor=none;align=left;verticalAlign=middle;spacingLeft=4;spacingRight=4;overflow=hidden;points=[[0,0.5],[1,0.5]];portConstraint=eastwest;rotatable=0;whiteSpace=wrap;html=1;" vertex="1" parent="280">
                    <mxGeometry y="490" width="930" height="30" as="geometry"/>
                </mxCell>
                <mxCell id="299" value="res_to : Res" style="text;strokeColor=none;fillColor=none;align=left;verticalAlign=middle;spacingLeft=4;spacingRight=4;overflow=hidden;points=[[0,0.5],[1,0.5]];portConstraint=eastwest;rotatable=0;whiteSpace=wrap;html=1;" vertex="1" parent="280">
                    <mxGeometry y="520" width="930" height="30" as="geometry"/>
                </mxCell>
                <mxCell id="300" value="" style="endArrow=none;dashed=1;html=1;rounded=0;exitX=0;exitY=0.5;exitDx=0;exitDy=0;entryX=1;entryY=0.5;entryDx=0;entryDy=0;" edge="1" parent="280">
                    <mxGeometry width="50" height="50" relative="1" as="geometry">
                        <mxPoint y="550" as="sourcePoint"/>
                        <mxPoint x="210" y="550" as="targetPoint"/>
                    </mxGeometry>
                </mxCell>
                <mxCell id="301" value="flow_from.F = -f" style="text;strokeColor=none;fillColor=none;align=left;verticalAlign=middle;spacingLeft=4;spacingRight=4;overflow=hidden;points=[[0,0.5],[1,0.5]];portConstraint=eastwest;rotatable=0;whiteSpace=wrap;html=1;" vertex="1" parent="280">
                    <mxGeometry y="550" width="930" height="30" as="geometry"/>
                </mxCell>
                <mxCell id="302" value="flow_to.F = f" style="text;strokeColor=none;fillColor=none;align=left;verticalAlign=middle;spacingLeft=4;spacingRight=4;overflow=hidden;points=[[0,0.5],[1,0.5]];portConstraint=eastwest;rotatable=0;whiteSpace=wrap;html=1;" vertex="1" parent="280">
                    <mxGeometry y="580" width="930" height="30" as="geometry"/>
                </mxCell>
                <mxCell id="303" value="res_from.r1_up = - (c1_exp_up&amp;nbsp;- c1_imp_up)" style="text;strokeColor=none;fillColor=none;align=left;verticalAlign=middle;spacingLeft=4;spacingRight=4;overflow=hidden;points=[[0,0.5],[1,0.5]];portConstraint=eastwest;rotatable=0;whiteSpace=wrap;html=1;" vertex="1" parent="280">
                    <mxGeometry y="610" width="930" height="30" as="geometry"/>
                </mxCell>
                <mxCell id="304" value="res_from.r1_down = - (c1_exp_down - c1_imp_down)" style="text;strokeColor=none;fillColor=none;align=left;verticalAlign=middle;spacingLeft=4;spacingRight=4;overflow=hidden;points=[[0,0.5],[1,0.5]];portConstraint=eastwest;rotatable=0;whiteSpace=wrap;html=1;" vertex="1" parent="280">
                    <mxGeometry y="640" width="930" height="30" as="geometry"/>
                </mxCell>
                <mxCell id="305" value="res_from.r2_up = - (c2_exp_up&amp;nbsp;- c2_imp_up)" style="text;strokeColor=none;fillColor=none;align=left;verticalAlign=middle;spacingLeft=4;spacingRight=4;overflow=hidden;points=[[0,0.5],[1,0.5]];portConstraint=eastwest;rotatable=0;whiteSpace=wrap;html=1;" vertex="1" parent="280">
                    <mxGeometry y="670" width="930" height="30" as="geometry"/>
                </mxCell>
                <mxCell id="306" value="res_from.r2_down = - (c2_exp_down - c2_imp_down)" style="text;strokeColor=none;fillColor=none;align=left;verticalAlign=middle;spacingLeft=4;spacingRight=4;overflow=hidden;points=[[0,0.5],[1,0.5]];portConstraint=eastwest;rotatable=0;whiteSpace=wrap;html=1;" vertex="1" parent="280">
                    <mxGeometry y="700" width="930" height="30" as="geometry"/>
                </mxCell>
                <mxCell id="307" value="res_to.r1_up = (c1_exp_up&amp;nbsp;- c1_imp_up)" style="text;strokeColor=none;fillColor=none;align=left;verticalAlign=middle;spacingLeft=4;spacingRight=4;overflow=hidden;points=[[0,0.5],[1,0.5]];portConstraint=eastwest;rotatable=0;whiteSpace=wrap;html=1;" vertex="1" parent="280">
                    <mxGeometry y="730" width="930" height="30" as="geometry"/>
                </mxCell>
                <mxCell id="308" value="res_to.r1_down=&amp;nbsp; (c1_exp_down - c1_imp_down)" style="text;strokeColor=none;fillColor=none;align=left;verticalAlign=middle;spacingLeft=4;spacingRight=4;overflow=hidden;points=[[0,0.5],[1,0.5]];portConstraint=eastwest;rotatable=0;whiteSpace=wrap;html=1;" vertex="1" parent="280">
                    <mxGeometry y="760" width="930" height="30" as="geometry"/>
                </mxCell>
                <mxCell id="309" value="res_to.r2_up =&amp;nbsp; (c2_exp_up&amp;nbsp;- c2_imp_up)" style="text;strokeColor=none;fillColor=none;align=left;verticalAlign=middle;spacingLeft=4;spacingRight=4;overflow=hidden;points=[[0,0.5],[1,0.5]];portConstraint=eastwest;rotatable=0;whiteSpace=wrap;html=1;" vertex="1" parent="280">
                    <mxGeometry y="790" width="930" height="30" as="geometry"/>
                </mxCell>
                <mxCell id="310" value="res_to.r2_down = - (c2_exp_down - c2_imp_down)" style="text;strokeColor=none;fillColor=none;align=left;verticalAlign=middle;spacingLeft=4;spacingRight=4;overflow=hidden;points=[[0,0.5],[1,0.5]];portConstraint=eastwest;rotatable=0;whiteSpace=wrap;html=1;" vertex="1" parent="280">
                    <mxGeometry y="820" width="930" height="30" as="geometry"/>
                </mxCell>
                <mxCell id="311" value="Reserve converter : Model" style="swimlane;fontStyle=0;childLayout=stackLayout;horizontal=1;startSize=30;horizontalStack=0;resizeParent=1;resizeParentMax=0;resizeLast=0;collapsible=1;marginBottom=0;whiteSpace=wrap;html=1;fillColor=#CCFFCC;" vertex="1" parent="1">
                    <mxGeometry x="390" y="-470" width="270" height="570" as="geometry"/>
                </mxCell>
                <mxCell id="312" value="r1_up_c : Variable" style="text;strokeColor=none;fillColor=none;align=left;verticalAlign=middle;spacingLeft=4;spacingRight=4;overflow=hidden;points=[[0,0.5],[1,0.5]];portConstraint=eastwest;rotatable=0;whiteSpace=wrap;html=1;" vertex="1" parent="311">
                    <mxGeometry y="30" width="270" height="30" as="geometry"/>
                </mxCell>
                <mxCell id="313" value="r1_down_c: Variable&amp;nbsp;" style="text;strokeColor=none;fillColor=none;align=left;verticalAlign=middle;spacingLeft=4;spacingRight=4;overflow=hidden;points=[[0,0.5],[1,0.5]];portConstraint=eastwest;rotatable=0;whiteSpace=wrap;html=1;" vertex="1" parent="311">
                    <mxGeometry y="60" width="270" height="30" as="geometry"/>
                </mxCell>
                <mxCell id="314" value="r2_up_c : Variable&amp;nbsp;" style="text;strokeColor=none;fillColor=none;align=left;verticalAlign=middle;spacingLeft=4;spacingRight=4;overflow=hidden;points=[[0,0.5],[1,0.5]];portConstraint=eastwest;rotatable=0;whiteSpace=wrap;html=1;" vertex="1" parent="311">
                    <mxGeometry y="90" width="270" height="30" as="geometry"/>
                </mxCell>
                <mxCell id="315" value="r2_down_c: Variable&amp;nbsp;" style="text;strokeColor=none;fillColor=none;align=left;verticalAlign=middle;spacingLeft=4;spacingRight=4;overflow=hidden;points=[[0,0.5],[1,0.5]];portConstraint=eastwest;rotatable=0;whiteSpace=wrap;html=1;" vertex="1" parent="311">
                    <mxGeometry y="120" width="270" height="30" as="geometry"/>
                </mxCell>
                <mxCell id="316" value="0 &amp;lt;=&amp;nbsp; r1_up_c&amp;nbsp;" style="text;strokeColor=none;fillColor=none;align=left;verticalAlign=middle;spacingLeft=4;spacingRight=4;overflow=hidden;points=[[0,0.5],[1,0.5]];portConstraint=eastwest;rotatable=0;whiteSpace=wrap;html=1;" vertex="1" parent="311">
                    <mxGeometry y="150" width="270" height="30" as="geometry"/>
                </mxCell>
                <mxCell id="317" value="0 &amp;lt;=&amp;nbsp; r1_down_c&amp;nbsp;" style="text;strokeColor=none;fillColor=none;align=left;verticalAlign=middle;spacingLeft=4;spacingRight=4;overflow=hidden;points=[[0,0.5],[1,0.5]];portConstraint=eastwest;rotatable=0;whiteSpace=wrap;html=1;" vertex="1" parent="311">
                    <mxGeometry y="180" width="270" height="30" as="geometry"/>
                </mxCell>
                <mxCell id="318" value="0 &amp;lt;=&amp;nbsp; r2_up_c&amp;nbsp;" style="text;strokeColor=none;fillColor=none;align=left;verticalAlign=middle;spacingLeft=4;spacingRight=4;overflow=hidden;points=[[0,0.5],[1,0.5]];portConstraint=eastwest;rotatable=0;whiteSpace=wrap;html=1;" vertex="1" parent="311">
                    <mxGeometry y="210" width="270" height="30" as="geometry"/>
                </mxCell>
                <mxCell id="319" value="0 &amp;lt;=&amp;nbsp; r2_down_c&amp;nbsp;" style="text;strokeColor=none;fillColor=none;align=left;verticalAlign=middle;spacingLeft=4;spacingRight=4;overflow=hidden;points=[[0,0.5],[1,0.5]];portConstraint=eastwest;rotatable=0;whiteSpace=wrap;html=1;" vertex="1" parent="311">
                    <mxGeometry y="240" width="270" height="30" as="geometry"/>
                </mxCell>
                <mxCell id="320" value="" style="endArrow=none;dashed=1;html=1;rounded=0;exitX=0;exitY=0.5;exitDx=0;exitDy=0;entryX=1;entryY=0.5;entryDx=0;entryDy=0;" edge="1" parent="311">
                    <mxGeometry width="50" height="50" relative="1" as="geometry">
                        <mxPoint y="150" as="sourcePoint"/>
                        <mxPoint x="200" y="150" as="targetPoint"/>
                    </mxGeometry>
                </mxCell>
                <mxCell id="321" value="" style="endArrow=none;dashed=1;html=1;rounded=0;exitX=0;exitY=0.5;exitDx=0;exitDy=0;entryX=1;entryY=0.5;entryDx=0;entryDy=0;" edge="1" parent="311">
                    <mxGeometry width="50" height="50" relative="1" as="geometry">
                        <mxPoint y="268.89" as="sourcePoint"/>
                        <mxPoint x="200" y="268.89" as="targetPoint"/>
                    </mxGeometry>
                </mxCell>
                <mxCell id="322" value="res_from : Res" style="text;strokeColor=none;fillColor=none;align=left;verticalAlign=middle;spacingLeft=4;spacingRight=4;overflow=hidden;points=[[0,0.5],[1,0.5]];portConstraint=eastwest;rotatable=0;whiteSpace=wrap;html=1;" vertex="1" parent="311">
                    <mxGeometry y="270" width="270" height="30" as="geometry"/>
                </mxCell>
                <mxCell id="323" value="res_to : Res" style="text;strokeColor=none;fillColor=none;align=left;verticalAlign=middle;spacingLeft=4;spacingRight=4;overflow=hidden;points=[[0,0.5],[1,0.5]];portConstraint=eastwest;rotatable=0;whiteSpace=wrap;html=1;" vertex="1" parent="311">
                    <mxGeometry y="300" width="270" height="30" as="geometry"/>
                </mxCell>
                <mxCell id="324" value="" style="endArrow=none;dashed=1;html=1;rounded=0;exitX=0;exitY=0.5;exitDx=0;exitDy=0;entryX=1;entryY=0.5;entryDx=0;entryDy=0;" edge="1" parent="311">
                    <mxGeometry width="50" height="50" relative="1" as="geometry">
                        <mxPoint y="330" as="sourcePoint"/>
                        <mxPoint x="200" y="330" as="targetPoint"/>
                    </mxGeometry>
                </mxCell>
                <mxCell id="325" value="res_to.r1_up = r1_up_c&amp;nbsp;" style="text;strokeColor=none;fillColor=none;align=left;verticalAlign=middle;spacingLeft=4;spacingRight=4;overflow=hidden;points=[[0,0.5],[1,0.5]];portConstraint=eastwest;rotatable=0;whiteSpace=wrap;html=1;" vertex="1" parent="311">
                    <mxGeometry y="330" width="270" height="30" as="geometry"/>
                </mxCell>
                <mxCell id="326" value="res_to.r1_down = r1_up_down&amp;nbsp;" style="text;strokeColor=none;fillColor=none;align=left;verticalAlign=middle;spacingLeft=4;spacingRight=4;overflow=hidden;points=[[0,0.5],[1,0.5]];portConstraint=eastwest;rotatable=0;whiteSpace=wrap;html=1;" vertex="1" parent="311">
                    <mxGeometry y="360" width="270" height="30" as="geometry"/>
                </mxCell>
                <mxCell id="327" value="res_to.r2_up = r2_up_c&amp;nbsp;" style="text;strokeColor=none;fillColor=none;align=left;verticalAlign=middle;spacingLeft=4;spacingRight=4;overflow=hidden;points=[[0,0.5],[1,0.5]];portConstraint=eastwest;rotatable=0;whiteSpace=wrap;html=1;" vertex="1" parent="311">
                    <mxGeometry y="390" width="270" height="30" as="geometry"/>
                </mxCell>
                <mxCell id="328" value="res_to.r2_down = r2_up_down&amp;nbsp;" style="text;strokeColor=none;fillColor=none;align=left;verticalAlign=middle;spacingLeft=4;spacingRight=4;overflow=hidden;points=[[0,0.5],[1,0.5]];portConstraint=eastwest;rotatable=0;whiteSpace=wrap;html=1;" vertex="1" parent="311">
                    <mxGeometry y="420" width="270" height="30" as="geometry"/>
                </mxCell>
                <mxCell id="329" value="res_from.r1_up =- r1_up_c&amp;nbsp;" style="text;strokeColor=none;fillColor=none;align=left;verticalAlign=middle;spacingLeft=4;spacingRight=4;overflow=hidden;points=[[0,0.5],[1,0.5]];portConstraint=eastwest;rotatable=0;whiteSpace=wrap;html=1;" vertex="1" parent="311">
                    <mxGeometry y="450" width="270" height="30" as="geometry"/>
                </mxCell>
                <mxCell id="330" value="res_from.r1_down = -r1_up_down&amp;nbsp;" style="text;strokeColor=none;fillColor=none;align=left;verticalAlign=middle;spacingLeft=4;spacingRight=4;overflow=hidden;points=[[0,0.5],[1,0.5]];portConstraint=eastwest;rotatable=0;whiteSpace=wrap;html=1;" vertex="1" parent="311">
                    <mxGeometry y="480" width="270" height="30" as="geometry"/>
                </mxCell>
                <mxCell id="331" value="res_from.r2_up = -r2_up_c&amp;nbsp;" style="text;strokeColor=none;fillColor=none;align=left;verticalAlign=middle;spacingLeft=4;spacingRight=4;overflow=hidden;points=[[0,0.5],[1,0.5]];portConstraint=eastwest;rotatable=0;whiteSpace=wrap;html=1;" vertex="1" parent="311">
                    <mxGeometry y="510" width="270" height="30" as="geometry"/>
                </mxCell>
                <mxCell id="332" value="res_from.r2_down = -r2_up_down&amp;nbsp;" style="text;strokeColor=none;fillColor=none;align=left;verticalAlign=middle;spacingLeft=4;spacingRight=4;overflow=hidden;points=[[0,0.5],[1,0.5]];portConstraint=eastwest;rotatable=0;whiteSpace=wrap;html=1;" vertex="1" parent="311">
                    <mxGeometry y="540" width="270" height="30" as="geometry"/>
                </mxCell>
                <mxCell id="333" value="Demand : Model" style="swimlane;fontStyle=0;childLayout=stackLayout;horizontal=1;startSize=30;horizontalStack=0;resizeParent=1;resizeParentMax=0;resizeLast=0;collapsible=1;marginBottom=0;whiteSpace=wrap;html=1;fillColor=#CCFFCC;" vertex="1" parent="1">
                    <mxGeometry x="130" y="-56.18" width="240" height="120" as="geometry"/>
                </mxCell>
                <mxCell id="334" value="d : Parameter" style="text;strokeColor=none;fillColor=none;align=left;verticalAlign=middle;spacingLeft=4;spacingRight=4;overflow=hidden;points=[[0,0.5],[1,0.5]];portConstraint=eastwest;rotatable=0;whiteSpace=wrap;html=1;" vertex="1" parent="333">
                    <mxGeometry y="30" width="240" height="30" as="geometry"/>
                </mxCell>
                <mxCell id="335" value="" style="endArrow=none;dashed=1;html=1;rounded=0;exitX=0;exitY=0.5;exitDx=0;exitDy=0;entryX=1;entryY=0.5;entryDx=0;entryDy=0;" edge="1" parent="333">
                    <mxGeometry width="50" height="50" relative="1" as="geometry">
                        <mxPoint y="58" as="sourcePoint"/>
                        <mxPoint x="220" y="58" as="targetPoint"/>
                    </mxGeometry>
                </mxCell>
                <mxCell id="336" value="flow_d : Flow" style="text;strokeColor=none;fillColor=none;align=left;verticalAlign=middle;spacingLeft=4;spacingRight=4;overflow=hidden;points=[[0,0.5],[1,0.5]];portConstraint=eastwest;rotatable=0;whiteSpace=wrap;html=1;" vertex="1" parent="333">
                    <mxGeometry y="60" width="240" height="30" as="geometry"/>
                </mxCell>
                <mxCell id="337" value="flow_d.F = -d" style="text;strokeColor=none;fillColor=none;align=left;verticalAlign=middle;spacingLeft=4;spacingRight=4;overflow=hidden;points=[[0,0.5],[1,0.5]];portConstraint=eastwest;rotatable=0;whiteSpace=wrap;html=1;" vertex="1" parent="333">
                    <mxGeometry y="90" width="240" height="30" as="geometry"/>
                </mxCell>
                <mxCell id="338" value="" style="endArrow=none;dashed=1;html=1;rounded=0;exitX=0;exitY=0.5;exitDx=0;exitDy=0;entryX=1;entryY=0.5;entryDx=0;entryDy=0;" edge="1" parent="333">
                    <mxGeometry width="50" height="50" relative="1" as="geometry">
                        <mxPoint y="89" as="sourcePoint"/>
                        <mxPoint x="220" y="89" as="targetPoint"/>
                    </mxGeometry>
                </mxCell>
                <mxCell id="339" value="Res: PortType" style="swimlane;fontStyle=0;childLayout=stackLayout;horizontal=1;startSize=30;horizontalStack=0;resizeParent=1;resizeParentMax=0;resizeLast=0;collapsible=1;marginBottom=0;whiteSpace=wrap;html=1;fillColor=#CCFFCC;" vertex="1" parent="1">
                    <mxGeometry x="-190" y="-710" width="300" height="150" as="geometry"/>
                </mxCell>
                <mxCell id="340" value="r1_up : PortField" style="text;strokeColor=none;fillColor=none;align=left;verticalAlign=middle;spacingLeft=4;spacingRight=4;overflow=hidden;points=[[0,0.5],[1,0.5]];portConstraint=eastwest;rotatable=0;whiteSpace=wrap;html=1;" vertex="1" parent="339">
                    <mxGeometry y="30" width="300" height="30" as="geometry"/>
                </mxCell>
                <mxCell id="341" value="r1_down : PortField" style="text;strokeColor=none;fillColor=none;align=left;verticalAlign=middle;spacingLeft=4;spacingRight=4;overflow=hidden;points=[[0,0.5],[1,0.5]];portConstraint=eastwest;rotatable=0;whiteSpace=wrap;html=1;" vertex="1" parent="339">
                    <mxGeometry y="60" width="300" height="30" as="geometry"/>
                </mxCell>
                <mxCell id="342" value="r2_up : PortField" style="text;strokeColor=none;fillColor=none;align=left;verticalAlign=middle;spacingLeft=4;spacingRight=4;overflow=hidden;points=[[0,0.5],[1,0.5]];portConstraint=eastwest;rotatable=0;whiteSpace=wrap;html=1;" vertex="1" parent="339">
                    <mxGeometry y="90" width="300" height="30" as="geometry"/>
                </mxCell>
                <mxCell id="343" value="&lt;span style=&quot;color: rgb(0, 0, 0); font-family: Helvetica; font-size: 12px; font-style: normal; font-variant-ligatures: normal; font-variant-caps: normal; font-weight: 400; letter-spacing: normal; orphans: 2; text-align: left; text-indent: 0px; text-transform: none; widows: 2; word-spacing: 0px; -webkit-text-stroke-width: 0px; background-color: rgb(251, 251, 251); text-decoration-thickness: initial; text-decoration-style: initial; text-decoration-color: initial; float: none; display: inline !important;&quot;&gt;r2_down : PortField&lt;/span&gt;" style="text;strokeColor=none;fillColor=none;align=left;verticalAlign=middle;spacingLeft=4;spacingRight=4;overflow=hidden;points=[[0,0.5],[1,0.5]];portConstraint=eastwest;rotatable=0;whiteSpace=wrap;html=1;" vertex="1" parent="339">
                    <mxGeometry y="120" width="300" height="30" as="geometry"/>
                </mxCell>
                <mxCell id="344" value="Reserve demand : Model" style="swimlane;fontStyle=0;childLayout=stackLayout;horizontal=1;startSize=30;horizontalStack=0;resizeParent=1;resizeParentMax=0;resizeLast=0;collapsible=1;marginBottom=0;whiteSpace=wrap;html=1;fillColor=#CCFFCC;" vertex="1" parent="1">
                    <mxGeometry x="390" y="-790" width="270" height="300" as="geometry"/>
                </mxCell>
                <mxCell id="345" value="d_r1_up : Parameter" style="text;strokeColor=none;fillColor=none;align=left;verticalAlign=middle;spacingLeft=4;spacingRight=4;overflow=hidden;points=[[0,0.5],[1,0.5]];portConstraint=eastwest;rotatable=0;whiteSpace=wrap;html=1;" vertex="1" parent="344">
                    <mxGeometry y="30" width="270" height="30" as="geometry"/>
                </mxCell>
                <mxCell id="346" value="&lt;span style=&quot;color: rgb(0, 0, 0); font-family: Helvetica; font-size: 12px; font-style: normal; font-variant-ligatures: normal; font-variant-caps: normal; font-weight: 400; letter-spacing: normal; orphans: 2; text-align: left; text-indent: 0px; text-transform: none; widows: 2; word-spacing: 0px; -webkit-text-stroke-width: 0px; background-color: rgb(251, 251, 251); text-decoration-thickness: initial; text-decoration-style: initial; text-decoration-color: initial; float: none; display: inline !important;&quot;&gt;d_r1_down : Parameter&lt;/span&gt;" style="text;strokeColor=none;fillColor=none;align=left;verticalAlign=middle;spacingLeft=4;spacingRight=4;overflow=hidden;points=[[0,0.5],[1,0.5]];portConstraint=eastwest;rotatable=0;whiteSpace=wrap;html=1;" vertex="1" parent="344">
                    <mxGeometry y="60" width="270" height="30" as="geometry"/>
                </mxCell>
                <mxCell id="347" value="d_r2_up : Parameter" style="text;strokeColor=none;fillColor=none;align=left;verticalAlign=middle;spacingLeft=4;spacingRight=4;overflow=hidden;points=[[0,0.5],[1,0.5]];portConstraint=eastwest;rotatable=0;whiteSpace=wrap;html=1;" vertex="1" parent="344">
                    <mxGeometry y="90" width="270" height="30" as="geometry"/>
                </mxCell>
                <mxCell id="348" value="d_r2_down : Parameter" style="text;strokeColor=none;fillColor=none;align=left;verticalAlign=middle;spacingLeft=4;spacingRight=4;overflow=hidden;points=[[0,0.5],[1,0.5]];portConstraint=eastwest;rotatable=0;whiteSpace=wrap;html=1;" vertex="1" parent="344">
                    <mxGeometry y="120" width="270" height="30" as="geometry"/>
                </mxCell>
                <mxCell id="349" value="" style="endArrow=none;dashed=1;html=1;rounded=0;exitX=0;exitY=0.5;exitDx=0;exitDy=0;entryX=1;entryY=0.5;entryDx=0;entryDy=0;" edge="1" parent="344">
                    <mxGeometry width="50" height="50" relative="1" as="geometry">
                        <mxPoint y="149.55" as="sourcePoint"/>
                        <mxPoint x="220" y="149.55" as="targetPoint"/>
                    </mxGeometry>
                </mxCell>
                <mxCell id="350" value="res_d: Res" style="text;strokeColor=none;fillColor=none;align=left;verticalAlign=middle;spacingLeft=4;spacingRight=4;overflow=hidden;points=[[0,0.5],[1,0.5]];portConstraint=eastwest;rotatable=0;whiteSpace=wrap;html=1;" vertex="1" parent="344">
                    <mxGeometry y="150" width="270" height="30" as="geometry"/>
                </mxCell>
                <mxCell id="351" value="" style="endArrow=none;dashed=1;html=1;rounded=0;exitX=0;exitY=0.5;exitDx=0;exitDy=0;entryX=1;entryY=0.5;entryDx=0;entryDy=0;" edge="1" parent="344">
                    <mxGeometry width="50" height="50" relative="1" as="geometry">
                        <mxPoint y="180" as="sourcePoint"/>
                        <mxPoint x="220" y="180" as="targetPoint"/>
                    </mxGeometry>
                </mxCell>
                <mxCell id="352" value="res_d.r1_up =&amp;nbsp; d_r1_up" style="text;strokeColor=none;fillColor=none;align=left;verticalAlign=middle;spacingLeft=4;spacingRight=4;overflow=hidden;points=[[0,0.5],[1,0.5]];portConstraint=eastwest;rotatable=0;whiteSpace=wrap;html=1;" vertex="1" parent="344">
                    <mxGeometry y="180" width="270" height="30" as="geometry"/>
                </mxCell>
                <mxCell id="353" value="&lt;span style=&quot;color: rgb(0, 0, 0); font-family: Helvetica; font-size: 12px; font-style: normal; font-variant-ligatures: normal; font-variant-caps: normal; font-weight: 400; letter-spacing: normal; orphans: 2; text-align: left; text-indent: 0px; text-transform: none; widows: 2; word-spacing: 0px; -webkit-text-stroke-width: 0px; background-color: rgb(251, 251, 251); text-decoration-thickness: initial; text-decoration-style: initial; text-decoration-color: initial; float: none; display: inline !important;&quot;&gt;res_d.r1_down =&amp;nbsp; d_r1_down&lt;/span&gt;" style="text;strokeColor=none;fillColor=none;align=left;verticalAlign=middle;spacingLeft=4;spacingRight=4;overflow=hidden;points=[[0,0.5],[1,0.5]];portConstraint=eastwest;rotatable=0;whiteSpace=wrap;html=1;" vertex="1" parent="344">
                    <mxGeometry y="210" width="270" height="30" as="geometry"/>
                </mxCell>
                <mxCell id="354" value="res_d.r2_up =&amp;nbsp; d_r2_up" style="text;strokeColor=none;fillColor=none;align=left;verticalAlign=middle;spacingLeft=4;spacingRight=4;overflow=hidden;points=[[0,0.5],[1,0.5]];portConstraint=eastwest;rotatable=0;whiteSpace=wrap;html=1;" vertex="1" parent="344">
                    <mxGeometry y="240" width="270" height="30" as="geometry"/>
                </mxCell>
                <mxCell id="355" value="res_d.r2_down =&amp;nbsp; d_r2_down" style="text;strokeColor=none;fillColor=none;align=left;verticalAlign=middle;spacingLeft=4;spacingRight=4;overflow=hidden;points=[[0,0.5],[1,0.5]];portConstraint=eastwest;rotatable=0;whiteSpace=wrap;html=1;" vertex="1" parent="344">
                    <mxGeometry y="270" width="270" height="30" as="geometry"/>
                </mxCell>
                <mxCell id="356" value="Reserve disctrict : Model" style="swimlane;fontStyle=0;childLayout=stackLayout;horizontal=1;startSize=30;horizontalStack=0;resizeParent=1;resizeParentMax=0;resizeLast=0;collapsible=1;marginBottom=0;whiteSpace=wrap;html=1;fillColor=#CCFFCC;" vertex="1" parent="1">
                    <mxGeometry x="-190" y="-370" width="300" height="300" as="geometry"/>
                </mxCell>
                <mxCell id="357" value="spill_r1_up, lol_r1_up : Variable" style="text;strokeColor=none;fillColor=none;align=left;verticalAlign=middle;spacingLeft=4;spacingRight=4;overflow=hidden;points=[[0,0.5],[1,0.5]];portConstraint=eastwest;rotatable=0;whiteSpace=wrap;html=1;" vertex="1" parent="356">
                    <mxGeometry y="30" width="300" height="30" as="geometry"/>
                </mxCell>
                <mxCell id="358" value="spill_r1_down, lol_r1_down : Variable" style="text;strokeColor=none;fillColor=none;align=left;verticalAlign=middle;spacingLeft=4;spacingRight=4;overflow=hidden;points=[[0,0.5],[1,0.5]];portConstraint=eastwest;rotatable=0;whiteSpace=wrap;html=1;" vertex="1" parent="356">
                    <mxGeometry y="60" width="300" height="30" as="geometry"/>
                </mxCell>
                <mxCell id="359" value="spill_r2_up, lol_r2_up : Variable" style="text;strokeColor=none;fillColor=none;align=left;verticalAlign=middle;spacingLeft=4;spacingRight=4;overflow=hidden;points=[[0,0.5],[1,0.5]];portConstraint=eastwest;rotatable=0;whiteSpace=wrap;html=1;" vertex="1" parent="356">
                    <mxGeometry y="90" width="300" height="30" as="geometry"/>
                </mxCell>
                <mxCell id="360" value="spill_r2_down, lol_r2_down : Variable" style="text;strokeColor=none;fillColor=none;align=left;verticalAlign=middle;spacingLeft=4;spacingRight=4;overflow=hidden;points=[[0,0.5],[1,0.5]];portConstraint=eastwest;rotatable=0;whiteSpace=wrap;html=1;" vertex="1" parent="356">
                    <mxGeometry y="120" width="300" height="30" as="geometry"/>
                </mxCell>
                <mxCell id="361" value="res_di: Res" style="text;strokeColor=none;fillColor=none;align=left;verticalAlign=middle;spacingLeft=4;spacingRight=4;overflow=hidden;points=[[0,0.5],[1,0.5]];portConstraint=eastwest;rotatable=0;whiteSpace=wrap;html=1;" vertex="1" parent="356">
                    <mxGeometry y="150" width="300" height="30" as="geometry"/>
                </mxCell>
                <mxCell id="362" value="" style="endArrow=none;dashed=1;html=1;rounded=0;exitX=0;exitY=0.5;exitDx=0;exitDy=0;entryX=1;entryY=0.5;entryDx=0;entryDy=0;" edge="1" parent="356">
                    <mxGeometry width="50" height="50" relative="1" as="geometry">
                        <mxPoint y="151.23000000000002" as="sourcePoint"/>
                        <mxPoint x="220" y="151.23000000000002" as="targetPoint"/>
                    </mxGeometry>
                </mxCell>
                <mxCell id="363" value="" style="endArrow=none;dashed=1;html=1;rounded=0;exitX=0;exitY=0.5;exitDx=0;exitDy=0;entryX=1;entryY=0.5;entryDx=0;entryDy=0;" edge="1" parent="356">
                    <mxGeometry width="50" height="50" relative="1" as="geometry">
                        <mxPoint y="179.23000000000002" as="sourcePoint"/>
                        <mxPoint x="220" y="179.23000000000002" as="targetPoint"/>
                    </mxGeometry>
                </mxCell>
                <mxCell id="364" value="res_di.r1_up.sum() = spill_r1_up - lol_r1_up" style="text;strokeColor=none;fillColor=none;align=left;verticalAlign=middle;spacingLeft=4;spacingRight=4;overflow=hidden;points=[[0,0.5],[1,0.5]];portConstraint=eastwest;rotatable=0;whiteSpace=wrap;html=1;" vertex="1" parent="356">
                    <mxGeometry y="180" width="300" height="30" as="geometry"/>
                </mxCell>
                <mxCell id="365" value="res_di.r1_.down.sum() = spill_r1_down - lol_r1_down" style="text;strokeColor=none;fillColor=none;align=left;verticalAlign=middle;spacingLeft=4;spacingRight=4;overflow=hidden;points=[[0,0.5],[1,0.5]];portConstraint=eastwest;rotatable=0;whiteSpace=wrap;html=1;" vertex="1" parent="356">
                    <mxGeometry y="210" width="300" height="30" as="geometry"/>
                </mxCell>
                <mxCell id="366" value="res_di.r2_up.sum() = spill_r2_up - lol_r2_up" style="text;strokeColor=none;fillColor=none;align=left;verticalAlign=middle;spacingLeft=4;spacingRight=4;overflow=hidden;points=[[0,0.5],[1,0.5]];portConstraint=eastwest;rotatable=0;whiteSpace=wrap;html=1;" vertex="1" parent="356">
                    <mxGeometry y="240" width="300" height="30" as="geometry"/>
                </mxCell>
                <mxCell id="367" value="res_di.r2_.down.sum() = spill_r2_down - lol_r2_down" style="text;strokeColor=none;fillColor=none;align=left;verticalAlign=middle;spacingLeft=4;spacingRight=4;overflow=hidden;points=[[0,0.5],[1,0.5]];portConstraint=eastwest;rotatable=0;whiteSpace=wrap;html=1;" vertex="1" parent="356">
                    <mxGeometry y="270" width="300" height="30" as="geometry"/>
                </mxCell>
                <mxCell id="368" value="Nœud : Model" style="swimlane;fontStyle=0;childLayout=stackLayout;horizontal=1;startSize=30;horizontalStack=0;resizeParent=1;resizeParentMax=0;resizeLast=0;collapsible=1;marginBottom=0;whiteSpace=wrap;html=1;fillColor=#CCFFCC;" vertex="1" parent="1">
                    <mxGeometry x="-190" y="-540" width="300" height="120" as="geometry"/>
                </mxCell>
                <mxCell id="369" value="Spill, Lol : Variable" style="text;strokeColor=none;fillColor=none;align=left;verticalAlign=middle;spacingLeft=4;spacingRight=4;overflow=hidden;points=[[0,0.5],[1,0.5]];portConstraint=eastwest;rotatable=0;whiteSpace=wrap;html=1;" vertex="1" parent="368">
                    <mxGeometry y="30" width="300" height="30" as="geometry"/>
                </mxCell>
                <mxCell id="370" value="" style="endArrow=none;dashed=1;html=1;rounded=0;exitX=0;exitY=0.5;exitDx=0;exitDy=0;entryX=1;entryY=0.5;entryDx=0;entryDy=0;" edge="1" parent="368">
                    <mxGeometry width="50" height="50" relative="1" as="geometry">
                        <mxPoint y="60" as="sourcePoint"/>
                        <mxPoint x="220" y="60" as="targetPoint"/>
                    </mxGeometry>
                </mxCell>
                <mxCell id="371" value="flow_n : Flow" style="text;strokeColor=none;fillColor=none;align=left;verticalAlign=middle;spacingLeft=4;spacingRight=4;overflow=hidden;points=[[0,0.5],[1,0.5]];portConstraint=eastwest;rotatable=0;whiteSpace=wrap;html=1;" vertex="1" parent="368">
                    <mxGeometry y="60" width="300" height="30" as="geometry"/>
                </mxCell>
                <mxCell id="372" value="" style="endArrow=none;dashed=1;html=1;rounded=0;exitX=0;exitY=0.5;exitDx=0;exitDy=0;entryX=1;entryY=0.5;entryDx=0;entryDy=0;" edge="1" parent="368">
                    <mxGeometry width="50" height="50" relative="1" as="geometry">
                        <mxPoint y="88" as="sourcePoint"/>
                        <mxPoint x="220" y="88" as="targetPoint"/>
                    </mxGeometry>
                </mxCell>
                <mxCell id="373" value="flown_n.F.sum() = Spill - Lol" style="text;strokeColor=none;fillColor=none;align=left;verticalAlign=middle;spacingLeft=4;spacingRight=4;overflow=hidden;points=[[0,0.5],[1,0.5]];portConstraint=eastwest;rotatable=0;whiteSpace=wrap;html=1;" vertex="1" parent="368">
                    <mxGeometry y="90" width="300" height="30" as="geometry"/>
                </mxCell>
                <mxCell id="374" value="&lt;div align=&quot;center&quot;&gt;District 2&lt;/div&gt;" style="ellipse;whiteSpace=wrap;html=1;rotation=-45;fillColor=#dae8fc;strokeColor=#6c8ebf;opacity=50;align=center;" vertex="1" parent="1">
                    <mxGeometry x="-780" y="-165.7746906696192" width="264.23" height="188.64" as="geometry"/>
                </mxCell>
                <mxCell id="375" value="&lt;div align=&quot;center&quot;&gt;District1&lt;/div&gt;" style="ellipse;whiteSpace=wrap;html=1;rotation=-45;fillColor=#dae8fc;strokeColor=#6c8ebf;opacity=50;align=center;" vertex="1" parent="1">
                    <mxGeometry x="-681.29" y="-62.18000000000001" width="488.54" height="267.13" as="geometry"/>
                </mxCell>
                <mxCell id="376" value="N1" style="ellipse;whiteSpace=wrap;html=1;aspect=fixed;" vertex="1" parent="1">
                    <mxGeometry x="-641.29" y="-86.18" width="80" height="80" as="geometry"/>
                </mxCell>
                <mxCell id="377" value="N2" style="ellipse;whiteSpace=wrap;html=1;aspect=fixed;" vertex="1" parent="1">
                    <mxGeometry x="-427.29" y="-86.18" width="80" height="80" as="geometry"/>
                </mxCell>
                <mxCell id="378" value="N3" style="ellipse;whiteSpace=wrap;html=1;aspect=fixed;" vertex="1" parent="1">
                    <mxGeometry x="-541.29" y="93.82000000000001" width="80" height="80" as="geometry"/>
                </mxCell>
                <mxCell id="379" value="" style="endArrow=none;html=1;rounded=0;exitX=1;exitY=1;exitDx=0;exitDy=0;entryX=0;entryY=0;entryDx=0;entryDy=0;" edge="1" parent="1" source="376" target="378">
                    <mxGeometry width="50" height="50" relative="1" as="geometry">
                        <mxPoint x="-411.29" y="193.82" as="sourcePoint"/>
                        <mxPoint x="-361.29" y="143.82" as="targetPoint"/>
                    </mxGeometry>
                </mxCell>
                <mxCell id="380" value="" style="endArrow=none;html=1;rounded=0;exitX=1;exitY=0.5;exitDx=0;exitDy=0;entryX=0;entryY=0.5;entryDx=0;entryDy=0;" edge="1" parent="1" source="376" target="377">
                    <mxGeometry width="50" height="50" relative="1" as="geometry">
                        <mxPoint x="-591.29" y="3.8199999999999896" as="sourcePoint"/>
                        <mxPoint x="-529.29" y="105.82000000000001" as="targetPoint"/>
                    </mxGeometry>
                </mxCell>
                <mxCell id="381" value="" style="endArrow=none;html=1;rounded=0;exitX=0;exitY=1;exitDx=0;exitDy=0;entryX=1;entryY=0;entryDx=0;entryDy=0;" edge="1" parent="1" source="377" target="378">
                    <mxGeometry width="50" height="50" relative="1" as="geometry">
                        <mxPoint x="-591.29" y="3.8199999999999896" as="sourcePoint"/>
                        <mxPoint x="-529.29" y="105.82000000000001" as="targetPoint"/>
                    </mxGeometry>
                </mxCell>
                <mxCell id="382" value="" style="endArrow=classic;html=1;rounded=0;entryX=0;entryY=0.5;entryDx=0;entryDy=0;exitX=1;exitY=0.5;exitDx=0;exitDy=0;" edge="1" parent="1" source="386" target="376">
                    <mxGeometry width="50" height="50" relative="1" as="geometry">
                        <mxPoint x="-731.29" y="-46.18000000000001" as="sourcePoint"/>
                        <mxPoint x="-361.29" y="143.82" as="targetPoint"/>
                    </mxGeometry>
                </mxCell>
                <mxCell id="383" value="" style="endArrow=classic;html=1;rounded=0;entryX=1;entryY=0;entryDx=0;entryDy=0;exitX=0;exitY=0.5;exitDx=0;exitDy=0;" edge="1" parent="1" source="387" target="377">
                    <mxGeometry width="50" height="50" relative="1" as="geometry">
                        <mxPoint x="-301.29" y="-116.18000000000002" as="sourcePoint"/>
                        <mxPoint x="-361.29" y="143.82" as="targetPoint"/>
                    </mxGeometry>
                </mxCell>
                <mxCell id="384" value="" style="endArrow=classic;html=1;rounded=0;entryX=1;entryY=1;entryDx=0;entryDy=0;exitX=0;exitY=0.5;exitDx=0;exitDy=0;" edge="1" parent="1" source="388" target="378">
                    <mxGeometry width="50" height="50" relative="1" as="geometry">
                        <mxPoint x="-421.29" y="213.82" as="sourcePoint"/>
                        <mxPoint x="-361.29" y="143.82" as="targetPoint"/>
                    </mxGeometry>
                </mxCell>
                <mxCell id="385" value="" style="endArrow=classic;html=1;rounded=0;entryX=0;entryY=1;entryDx=0;entryDy=0;exitX=1;exitY=0.25;exitDx=0;exitDy=0;" edge="1" parent="1" source="389" target="378">
                    <mxGeometry width="50" height="50" relative="1" as="geometry">
                        <mxPoint x="-581.29" y="193.82" as="sourcePoint"/>
                        <mxPoint x="-361.29" y="143.82" as="targetPoint"/>
                    </mxGeometry>
                </mxCell>
                <mxCell id="386" value="T1" style="rounded=1;whiteSpace=wrap;html=1;" vertex="1" parent="1">
                    <mxGeometry x="-721.29" y="-61.18000000000001" width="40" height="30" as="geometry"/>
                </mxCell>
                <mxCell id="387" value="T2" style="rounded=1;whiteSpace=wrap;html=1;" vertex="1" parent="1">
                    <mxGeometry x="-331.29" y="-106.18000000000002" width="40" height="30" as="geometry"/>
                </mxCell>
                <mxCell id="388" value="T3" style="rounded=1;whiteSpace=wrap;html=1;" vertex="1" parent="1">
                    <mxGeometry x="-441.29" y="163.82" width="40" height="30" as="geometry"/>
                </mxCell>
                <mxCell id="389" value="T4" style="rounded=1;whiteSpace=wrap;html=1;" vertex="1" parent="1">
                    <mxGeometry x="-591.29" y="173.82" width="40" height="30" as="geometry"/>
                </mxCell>
                <mxCell id="390" value="" style="group" vertex="1" connectable="0" parent="1">
                    <mxGeometry x="413.73" y="1200" width="1160" height="651" as="geometry"/>
                </mxCell>
                <mxCell id="391" value="" style="group" vertex="1" connectable="0" parent="390">
                    <mxGeometry x="200" width="80" height="110" as="geometry"/>
                </mxCell>
                <mxCell id="392" value="n_1" style="ellipse;whiteSpace=wrap;html=1;aspect=fixed;fillColor=#dae8fc;strokeColor=#6c8ebf;" vertex="1" parent="391">
                    <mxGeometry width="80" height="80" as="geometry"/>
                </mxCell>
                <mxCell id="393" value="flow_n" style="rounded=0;whiteSpace=wrap;html=1;fillColor=#dae8fc;strokeColor=#6c8ebf;" vertex="1" parent="391">
                    <mxGeometry x="15" y="80" width="50" height="30" as="geometry"/>
                </mxCell>
                <mxCell id="394" value="" style="group" vertex="1" connectable="0" parent="390">
                    <mxGeometry x="370" width="80" height="110" as="geometry"/>
                </mxCell>
                <mxCell id="395" value="n_2" style="ellipse;whiteSpace=wrap;html=1;aspect=fixed;fillColor=#dae8fc;strokeColor=#6c8ebf;" vertex="1" parent="394">
                    <mxGeometry width="80" height="80" as="geometry"/>
                </mxCell>
                <mxCell id="396" value="flow_n" style="rounded=0;whiteSpace=wrap;html=1;fillColor=#dae8fc;strokeColor=#6c8ebf;" vertex="1" parent="394">
                    <mxGeometry x="15" y="80" width="50" height="30" as="geometry"/>
                </mxCell>
                <mxCell id="397" value="" style="group" vertex="1" connectable="0" parent="390">
                    <mxGeometry x="530" width="80" height="110" as="geometry"/>
                </mxCell>
                <mxCell id="398" value="n_3" style="ellipse;whiteSpace=wrap;html=1;aspect=fixed;fillColor=#dae8fc;strokeColor=#6c8ebf;" vertex="1" parent="397">
                    <mxGeometry width="80" height="80" as="geometry"/>
                </mxCell>
                <mxCell id="399" value="flow_n" style="rounded=0;whiteSpace=wrap;html=1;fillColor=#dae8fc;strokeColor=#6c8ebf;" vertex="1" parent="397">
                    <mxGeometry x="15" y="80" width="50" height="30" as="geometry"/>
                </mxCell>
                <mxCell id="400" value="" style="group" vertex="1" connectable="0" parent="390">
                    <mxGeometry x="840" y="250" width="80" height="90" as="geometry"/>
                </mxCell>
                <mxCell id="401" value="prod_1" style="rounded=1;whiteSpace=wrap;html=1;" vertex="1" parent="400">
                    <mxGeometry y="30" width="80" height="30" as="geometry"/>
                </mxCell>
                <mxCell id="402" value="flow_p" style="rounded=0;whiteSpace=wrap;html=1;fillColor=#dae8fc;strokeColor=#6c8ebf;" vertex="1" parent="400">
                    <mxGeometry x="15" width="50" height="30" as="geometry"/>
                </mxCell>
                <mxCell id="403" value="res_r" style="rounded=0;whiteSpace=wrap;html=1;fillColor=#d5e8d4;strokeColor=#82b366;" vertex="1" parent="400">
                    <mxGeometry x="15" y="60" width="50" height="30" as="geometry"/>
                </mxCell>
                <mxCell id="404" value="" style="group" vertex="1" connectable="0" parent="390">
                    <mxGeometry x="-124" y="250" width="80" height="90" as="geometry"/>
                </mxCell>
                <mxCell id="405" value="prod_4" style="rounded=1;whiteSpace=wrap;html=1;" vertex="1" parent="404">
                    <mxGeometry y="30" width="80" height="30" as="geometry"/>
                </mxCell>
                <mxCell id="406" value="flow_p" style="rounded=0;whiteSpace=wrap;html=1;fillColor=#dae8fc;strokeColor=#6c8ebf;" vertex="1" parent="404">
                    <mxGeometry x="15" width="50" height="30" as="geometry"/>
                </mxCell>
                <mxCell id="407" value="res_r" style="rounded=0;whiteSpace=wrap;html=1;fillColor=#D5E8D4;strokeColor=#d79b00;" vertex="1" parent="404">
                    <mxGeometry x="15" y="60" width="50" height="30" as="geometry"/>
                </mxCell>
                <mxCell id="408" value="" style="group" vertex="1" connectable="0" parent="390">
                    <mxGeometry x="960" y="250" width="80" height="90" as="geometry"/>
                </mxCell>
                <mxCell id="409" value="prod_2" style="rounded=1;whiteSpace=wrap;html=1;" vertex="1" parent="408">
                    <mxGeometry y="30" width="80" height="30" as="geometry"/>
                </mxCell>
                <mxCell id="410" value="flow_p" style="rounded=0;whiteSpace=wrap;html=1;fillColor=#dae8fc;strokeColor=#6c8ebf;" vertex="1" parent="408">
                    <mxGeometry x="15" width="50" height="30" as="geometry"/>
                </mxCell>
                <mxCell id="411" value="res_r" style="rounded=0;whiteSpace=wrap;html=1;fillColor=#d5e8d4;strokeColor=#82b366;" vertex="1" parent="408">
                    <mxGeometry x="15" y="60" width="50" height="30" as="geometry"/>
                </mxCell>
                <mxCell id="412" value="" style="group" vertex="1" connectable="0" parent="390">
                    <mxGeometry x="1080" y="250" width="80" height="90" as="geometry"/>
                </mxCell>
                <mxCell id="413" value="prod_3" style="rounded=1;whiteSpace=wrap;html=1;" vertex="1" parent="412">
                    <mxGeometry y="30" width="80" height="30" as="geometry"/>
                </mxCell>
                <mxCell id="414" value="flow_p" style="rounded=0;whiteSpace=wrap;html=1;fillColor=#dae8fc;strokeColor=#6c8ebf;" vertex="1" parent="412">
                    <mxGeometry x="15" width="50" height="30" as="geometry"/>
                </mxCell>
                <mxCell id="415" value="res_r" style="rounded=0;whiteSpace=wrap;html=1;fillColor=#d5e8d4;strokeColor=#82b366;" vertex="1" parent="412">
                    <mxGeometry x="15" y="60" width="50" height="30" as="geometry"/>
                </mxCell>
                <mxCell id="416" value="" style="group" vertex="1" connectable="0" parent="390">
                    <mxGeometry x="175.99999999999997" y="230" width="121.73000000000002" height="150" as="geometry"/>
                </mxCell>
                <mxCell id="417" value="l_12" style="ellipse;whiteSpace=wrap;html=1;" vertex="1" parent="416">
                    <mxGeometry y="30" width="120" height="80" as="geometry"/>
                </mxCell>
                <mxCell id="418" value="" style="group;fillColor=#dae8fc;strokeColor=#6c8ebf;" vertex="1" connectable="0" parent="416">
                    <mxGeometry width="120" height="30" as="geometry"/>
                </mxCell>
                <mxCell id="419" value="flow_from" style="rounded=0;whiteSpace=wrap;html=1;fillColor=#dae8fc;strokeColor=#6c8ebf;" vertex="1" parent="418">
                    <mxGeometry width="54.54545454545454" height="30" as="geometry"/>
                </mxCell>
                <mxCell id="420" value="flow_to" style="rounded=0;whiteSpace=wrap;html=1;fillColor=#dae8fc;strokeColor=#6c8ebf;" vertex="1" parent="418">
                    <mxGeometry x="54.54545454545454" width="65.45454545454545" height="30" as="geometry"/>
                </mxCell>
                <mxCell id="421" value="" style="group" vertex="1" connectable="0" parent="416">
                    <mxGeometry x="-4.27" y="109" width="120.87" height="30" as="geometry"/>
                </mxCell>
                <mxCell id="422" value="capa_from" style="rounded=0;whiteSpace=wrap;html=1;fillColor=#ffe6cc;strokeColor=#d79b00;" vertex="1" parent="421">
                    <mxGeometry width="60.435" height="30" as="geometry"/>
                </mxCell>
                <mxCell id="423" value="capa_to" style="rounded=0;whiteSpace=wrap;html=1;fillColor=#ffe6cc;strokeColor=#d79b00;" vertex="1" parent="421">
                    <mxGeometry x="60.435" width="60.435" height="30" as="geometry"/>
                </mxCell>
                <mxCell id="424" value="" style="group" vertex="1" connectable="0" parent="390">
                    <mxGeometry x="341.73" y="230" width="121.73000000000002" height="140" as="geometry"/>
                </mxCell>
                <mxCell id="425" value="l_13" style="ellipse;whiteSpace=wrap;html=1;" vertex="1" parent="424">
                    <mxGeometry y="30" width="120" height="80" as="geometry"/>
                </mxCell>
                <mxCell id="426" value="" style="group;fillColor=#dae8fc;strokeColor=#6c8ebf;" vertex="1" connectable="0" parent="424">
                    <mxGeometry width="110" height="30" as="geometry"/>
                </mxCell>
                <mxCell id="427" value="flow_from" style="rounded=0;whiteSpace=wrap;html=1;fillColor=#dae8fc;strokeColor=#6c8ebf;" vertex="1" parent="426">
                    <mxGeometry width="55.00000000000001" height="30" as="geometry"/>
                </mxCell>
                <mxCell id="428" value="flow_to" style="rounded=0;whiteSpace=wrap;html=1;fillColor=#dae8fc;strokeColor=#6c8ebf;" vertex="1" parent="426">
                    <mxGeometry x="55.00000000000001" width="55.00000000000001" height="30" as="geometry"/>
                </mxCell>
                <mxCell id="429" value="" style="group" vertex="1" connectable="0" parent="424">
                    <mxGeometry y="109" width="120" height="30" as="geometry"/>
                </mxCell>
                <mxCell id="430" value="capa_from" style="rounded=0;whiteSpace=wrap;html=1;fillColor=#ffe6cc;strokeColor=#d79b00;" vertex="1" parent="429">
                    <mxGeometry width="60" height="30" as="geometry"/>
                </mxCell>
                <mxCell id="431" value="capa_to" style="rounded=0;whiteSpace=wrap;html=1;fillColor=#ffe6cc;strokeColor=#d79b00;" vertex="1" parent="429">
                    <mxGeometry x="60" width="60" height="30" as="geometry"/>
                </mxCell>
                <mxCell id="432" value="" style="group" vertex="1" connectable="0" parent="390">
                    <mxGeometry x="531.73" y="230" width="121.73000000000002" height="140" as="geometry"/>
                </mxCell>
                <mxCell id="433" value="l_23" style="ellipse;whiteSpace=wrap;html=1;" vertex="1" parent="432">
                    <mxGeometry y="30" width="120" height="80" as="geometry"/>
                </mxCell>
                <mxCell id="434" value="" style="group;fillColor=#dae8fc;strokeColor=#6c8ebf;" vertex="1" connectable="0" parent="432">
                    <mxGeometry width="110" height="30" as="geometry"/>
                </mxCell>
                <mxCell id="435" value="flow_from" style="rounded=0;whiteSpace=wrap;html=1;fillColor=#dae8fc;strokeColor=#6c8ebf;" vertex="1" parent="434">
                    <mxGeometry width="55.00000000000001" height="30" as="geometry"/>
                </mxCell>
                <mxCell id="436" value="flow_to" style="rounded=0;whiteSpace=wrap;html=1;fillColor=#dae8fc;strokeColor=#6c8ebf;" vertex="1" parent="434">
                    <mxGeometry x="55.00000000000001" width="55.00000000000001" height="30" as="geometry"/>
                </mxCell>
                <mxCell id="437" value="" style="group;fillColor=#ffe6cc;strokeColor=#d79b00;" vertex="1" connectable="0" parent="432">
                    <mxGeometry y="110" width="120" height="30" as="geometry"/>
                </mxCell>
                <mxCell id="438" value="capa_from" style="rounded=0;whiteSpace=wrap;html=1;fillColor=#ffe6cc;strokeColor=#d79b00;" vertex="1" parent="437">
                    <mxGeometry width="60" height="30" as="geometry"/>
                </mxCell>
                <mxCell id="439" value="capa_to" style="rounded=0;whiteSpace=wrap;html=1;fillColor=#ffe6cc;strokeColor=#d79b00;" vertex="1" parent="437">
                    <mxGeometry x="60" width="60" height="30" as="geometry"/>
                </mxCell>
                <mxCell id="440" value="" style="group" vertex="1" connectable="0" parent="390">
                    <mxGeometry x="790" y="510" width="80" height="110" as="geometry"/>
                </mxCell>
                <mxCell id="441" value="d_2_resint" style="ellipse;whiteSpace=wrap;html=1;aspect=fixed;fillColor=#d5e8d4;strokeColor=#82b366;" vertex="1" parent="440">
                    <mxGeometry y="30" width="80" height="80" as="geometry"/>
                </mxCell>
                <mxCell id="442" value="res_di" style="rounded=0;whiteSpace=wrap;html=1;fillColor=#d5e8d4;strokeColor=#82b366;" vertex="1" parent="440">
                    <mxGeometry x="15" width="50" height="30" as="geometry"/>
                </mxCell>
                <mxCell id="443" value="" style="group" vertex="1" connectable="0" parent="390">
                    <mxGeometry x="-74" y="490" width="86" height="130" as="geometry"/>
                </mxCell>
                <mxCell id="444" value="d_1_resint" style="ellipse;whiteSpace=wrap;html=1;aspect=fixed;fillColor=#D5E8D4;strokeColor=#d79b00;" vertex="1" parent="443">
                    <mxGeometry y="50" width="80" height="80" as="geometry"/>
                </mxCell>
                <mxCell id="445" value="res_di" style="rounded=0;whiteSpace=wrap;html=1;fillColor=#D5E8D4;strokeColor=#d79b00;" vertex="1" parent="443">
                    <mxGeometry x="11.730000000000011" y="20" width="50" height="30" as="geometry"/>
                </mxCell>
                <mxCell id="446" value="" style="group" vertex="1" connectable="0" parent="390">
                    <mxGeometry x="906" y="560" width="100" height="90" as="geometry"/>
                </mxCell>
                <mxCell id="447" value="demand_resint_2" style="rounded=1;whiteSpace=wrap;html=1;" vertex="1" parent="446">
                    <mxGeometry y="60" width="100" height="30" as="geometry"/>
                </mxCell>
                <mxCell id="448" value="res_d" style="rounded=0;whiteSpace=wrap;html=1;fillColor=#d5e8d4;strokeColor=#82b366;" vertex="1" parent="446">
                    <mxGeometry x="15" y="30" width="50" height="30" as="geometry"/>
                </mxCell>
                <mxCell id="449" value="" style="endArrow=classic;html=1;rounded=0;entryX=1;entryY=1;entryDx=0;entryDy=0;" edge="1" parent="390" target="399">
                    <mxGeometry width="50" height="50" relative="1" as="geometry">
                        <mxPoint x="976" y="250" as="sourcePoint"/>
                        <mxPoint x="1126" y="260" as="targetPoint"/>
                    </mxGeometry>
                </mxCell>
                <mxCell id="450" value="" style="endArrow=classic;html=1;rounded=0;exitX=0.75;exitY=0;exitDx=0;exitDy=0;" edge="1" parent="390" source="406">
                    <mxGeometry width="50" height="50" relative="1" as="geometry">
                        <mxPoint x="445" y="113" as="sourcePoint"/>
                        <mxPoint x="216" y="90" as="targetPoint"/>
                    </mxGeometry>
                </mxCell>
                <mxCell id="451" value="" style="endArrow=classic;html=1;rounded=0;entryX=1;entryY=0.25;entryDx=0;entryDy=0;exitX=0.25;exitY=0;exitDx=0;exitDy=0;" edge="1" parent="390" source="414" target="399">
                    <mxGeometry width="50" height="50" relative="1" as="geometry">
                        <mxPoint x="1156" y="80" as="sourcePoint"/>
                        <mxPoint x="1116" y="250" as="targetPoint"/>
                    </mxGeometry>
                </mxCell>
                <mxCell id="452" value="" style="endArrow=classic;html=1;rounded=0;exitX=0.5;exitY=0;exitDx=0;exitDy=0;entryX=0.25;entryY=1;entryDx=0;entryDy=0;" edge="1" parent="390" source="420" target="396">
                    <mxGeometry width="50" height="50" relative="1" as="geometry">
                        <mxPoint x="249" y="300" as="sourcePoint"/>
                        <mxPoint x="246" y="120" as="targetPoint"/>
                    </mxGeometry>
                </mxCell>
                <mxCell id="453" value="" style="endArrow=classic;html=1;rounded=0;exitX=0.5;exitY=0;exitDx=0;exitDy=0;entryX=0.75;entryY=1;entryDx=0;entryDy=0;" edge="1" parent="390" source="427" target="393">
                    <mxGeometry width="50" height="50" relative="1" as="geometry">
                        <mxPoint x="249" y="300" as="sourcePoint"/>
                        <mxPoint x="246" y="120" as="targetPoint"/>
                    </mxGeometry>
                </mxCell>
                <mxCell id="454" value="" style="endArrow=classic;html=1;rounded=0;exitX=0.5;exitY=0;exitDx=0;exitDy=0;entryX=0.75;entryY=1;entryDx=0;entryDy=0;" edge="1" parent="390" source="435" target="396">
                    <mxGeometry width="50" height="50" relative="1" as="geometry">
                        <mxPoint x="465" y="300" as="sourcePoint"/>
                        <mxPoint x="556" y="110" as="targetPoint"/>
                    </mxGeometry>
                </mxCell>
                <mxCell id="455" value="" style="endArrow=classic;html=1;rounded=0;entryX=1;entryY=0.5;entryDx=0;entryDy=0;exitX=0;exitY=0.5;exitDx=0;exitDy=0;" edge="1" parent="390" source="402" target="396">
                    <mxGeometry width="50" height="50" relative="1" as="geometry">
                        <mxPoint x="986" y="260" as="sourcePoint"/>
                        <mxPoint x="605" y="120" as="targetPoint"/>
                    </mxGeometry>
                </mxCell>
                <mxCell id="456" value="" style="endArrow=classic;html=1;rounded=0;exitX=0.75;exitY=1;exitDx=0;exitDy=0;entryX=0.5;entryY=0;entryDx=0;entryDy=0;" edge="1" parent="390" source="407" target="445">
                    <mxGeometry width="50" height="50" relative="1" as="geometry">
                        <mxPoint x="890" y="350" as="sourcePoint"/>
                        <mxPoint x="96" y="490" as="targetPoint"/>
                    </mxGeometry>
                </mxCell>
                <mxCell id="457" value="" style="group" vertex="1" connectable="0" parent="390">
                    <mxGeometry x="476" y="510" width="80" height="110" as="geometry"/>
                </mxCell>
                <mxCell id="458" value="d_2_resexc" style="ellipse;whiteSpace=wrap;html=1;aspect=fixed;fillColor=#1D911D;strokeColor=#82b366;" vertex="1" parent="457">
                    <mxGeometry y="30" width="80" height="80" as="geometry"/>
                </mxCell>
                <mxCell id="459" value="res_di" style="rounded=0;whiteSpace=wrap;html=1;fillColor=#1D911D;strokeColor=#82b366;" vertex="1" parent="457">
                    <mxGeometry x="15" width="50" height="30" as="geometry"/>
                </mxCell>
                <mxCell id="460" value="demand_resexc_2" style="rounded=1;whiteSpace=wrap;html=1;" vertex="1" parent="390">
                    <mxGeometry x="562" y="620" width="114" height="30" as="geometry"/>
                </mxCell>
                <mxCell id="461" value="flow_d" style="rounded=0;whiteSpace=wrap;html=1;fillColor=#d5e8d4;strokeColor=#82b366;" vertex="1" parent="390">
                    <mxGeometry x="577" y="590" width="50" height="30" as="geometry"/>
                </mxCell>
                <mxCell id="462" value="" style="endArrow=classic;html=1;rounded=0;entryX=0.5;entryY=1;entryDx=0;entryDy=0;exitX=0.75;exitY=0;exitDx=0;exitDy=0;" edge="1" parent="390" source="436" target="399">
                    <mxGeometry width="50" height="50" relative="1" as="geometry">
                        <mxPoint x="656" y="290" as="sourcePoint"/>
                        <mxPoint x="433" y="120" as="targetPoint"/>
                    </mxGeometry>
                </mxCell>
                <mxCell id="463" value="" style="endArrow=classic;html=1;rounded=0;entryX=1;entryY=0.75;entryDx=0;entryDy=0;exitX=0.5;exitY=0;exitDx=0;exitDy=0;" edge="1" parent="390" source="461" target="459">
                    <mxGeometry width="50" height="50" relative="1" as="geometry">
                        <mxPoint x="581" y="575" as="sourcePoint"/>
                        <mxPoint x="521" y="692" as="targetPoint"/>
                    </mxGeometry>
                </mxCell>
                <mxCell id="464" value="" style="endArrow=classic;html=1;rounded=0;exitX=0.5;exitY=1;exitDx=0;exitDy=0;entryX=1;entryY=0;entryDx=0;entryDy=0;" edge="1" parent="390" source="411" target="442">
                    <mxGeometry width="50" height="50" relative="1" as="geometry">
                        <mxPoint x="890" y="350" as="sourcePoint"/>
                        <mxPoint x="846" y="520" as="targetPoint"/>
                    </mxGeometry>
                </mxCell>
                <mxCell id="465" value="" style="endArrow=classic;html=1;rounded=0;exitX=0.5;exitY=0;exitDx=0;exitDy=0;entryX=1;entryY=0.5;entryDx=0;entryDy=0;" edge="1" parent="390" source="448" target="442">
                    <mxGeometry width="50" height="50" relative="1" as="geometry">
                        <mxPoint x="1118" y="350" as="sourcePoint"/>
                        <mxPoint x="863" y="530" as="targetPoint"/>
                    </mxGeometry>
                </mxCell>
                <mxCell id="466" value="" style="endArrow=classic;html=1;rounded=0;exitX=0.25;exitY=1;exitDx=0;exitDy=0;entryX=1;entryY=0.25;entryDx=0;entryDy=0;" edge="1" parent="390" source="415" target="442">
                    <mxGeometry width="50" height="50" relative="1" as="geometry">
                        <mxPoint x="1010" y="350" as="sourcePoint"/>
                        <mxPoint x="856" y="530" as="targetPoint"/>
                    </mxGeometry>
                </mxCell>
                <mxCell id="467" value="" style="endArrow=classic;html=1;rounded=0;exitX=0.5;exitY=1;exitDx=0;exitDy=0;entryX=0.75;entryY=0;entryDx=0;entryDy=0;" edge="1" parent="390" source="403" target="442">
                    <mxGeometry width="50" height="50" relative="1" as="geometry">
                        <mxPoint x="986" y="260" as="sourcePoint"/>
                        <mxPoint x="856" y="510" as="targetPoint"/>
                    </mxGeometry>
                </mxCell>
                <mxCell id="468" value="" style="endArrow=classic;html=1;rounded=0;exitX=0.5;exitY=1;exitDx=0;exitDy=0;entryX=0.5;entryY=0;entryDx=0;entryDy=0;" edge="1" parent="390" source="422" target="489">
                    <mxGeometry width="50" height="50" relative="1" as="geometry">
                        <mxPoint x="81" y="505" as="sourcePoint"/>
                        <mxPoint x="196.26999999999998" y="430" as="targetPoint"/>
                    </mxGeometry>
                </mxCell>
                <mxCell id="469" value="" style="endArrow=classic;html=1;rounded=0;exitX=0.5;exitY=1;exitDx=0;exitDy=0;entryX=0;entryY=0.25;entryDx=0;entryDy=0;" edge="1" parent="390" source="430" target="496">
                    <mxGeometry width="50" height="50" relative="1" as="geometry">
                        <mxPoint x="81" y="543" as="sourcePoint"/>
                        <mxPoint x="406.27" y="450" as="targetPoint"/>
                    </mxGeometry>
                </mxCell>
                <mxCell id="470" value="" style="endArrow=classic;html=1;rounded=0;entryX=0.5;entryY=0;entryDx=0;entryDy=0;" edge="1" parent="390" source="423" target="492">
                    <mxGeometry width="50" height="50" relative="1" as="geometry">
                        <mxPoint x="81" y="475" as="sourcePoint"/>
                        <mxPoint x="396" y="550" as="targetPoint"/>
                    </mxGeometry>
                </mxCell>
                <mxCell id="471" value="" style="endArrow=classic;html=1;rounded=0;entryX=0;entryY=0.25;entryDx=0;entryDy=0;exitX=0.25;exitY=1;exitDx=0;exitDy=0;" edge="1" parent="390" source="431" target="499">
                    <mxGeometry width="50" height="50" relative="1" as="geometry">
                        <mxPoint x="288" y="379" as="sourcePoint"/>
                        <mxPoint x="561" y="640" as="targetPoint"/>
                    </mxGeometry>
                </mxCell>
                <mxCell id="472" value="conv_res_Int_ext_2" style="rounded=1;whiteSpace=wrap;html=1;" vertex="1" parent="390">
                    <mxGeometry x="629" y="535.5" width="111" height="30" as="geometry"/>
                </mxCell>
                <mxCell id="473" value="" style="endArrow=classic;html=1;rounded=0;entryX=0;entryY=0.5;entryDx=0;entryDy=0;exitX=1;exitY=0.5;exitDx=0;exitDy=0;" edge="1" parent="390" source="475" target="442">
                    <mxGeometry width="50" height="50" relative="1" as="geometry">
                        <mxPoint x="650" y="515.5" as="sourcePoint"/>
                        <mxPoint x="805" y="533" as="targetPoint"/>
                    </mxGeometry>
                </mxCell>
                <mxCell id="474" value="res_out" style="rounded=0;whiteSpace=wrap;html=1;fillColor=#D5E8D4;strokeColor=#d79b00;" vertex="1" parent="390">
                    <mxGeometry x="626" y="518.5" width="50" height="17" as="geometry"/>
                </mxCell>
                <mxCell id="475" value="res_in" style="rounded=0;whiteSpace=wrap;html=1;fillColor=#d5e8d4;strokeColor=#82b366;" vertex="1" parent="390">
                    <mxGeometry x="676" y="518.5" width="50" height="17" as="geometry"/>
                </mxCell>
                <mxCell id="476" value="" style="endArrow=classic;html=1;rounded=0;entryX=1;entryY=0.5;entryDx=0;entryDy=0;exitX=0;exitY=0.5;exitDx=0;exitDy=0;" edge="1" parent="390" source="474" target="459">
                    <mxGeometry width="50" height="50" relative="1" as="geometry">
                        <mxPoint x="601" y="590.5" as="sourcePoint"/>
                        <mxPoint x="561" y="548.5" as="targetPoint"/>
                    </mxGeometry>
                </mxCell>
                <mxCell id="477" value="conv_res_Int_ext_1" style="rounded=1;whiteSpace=wrap;html=1;" vertex="1" parent="390">
                    <mxGeometry x="65" y="535.5" width="111" height="30" as="geometry"/>
                </mxCell>
                <mxCell id="478" value="" style="endArrow=classic;html=1;rounded=0;entryX=0;entryY=0.5;entryDx=0;entryDy=0;exitX=1;exitY=0.5;exitDx=0;exitDy=0;" edge="1" parent="390" source="480" target="484">
                    <mxGeometry width="50" height="50" relative="1" as="geometry">
                        <mxPoint x="206" y="537" as="sourcePoint"/>
                        <mxPoint x="248" y="536.5" as="targetPoint"/>
                    </mxGeometry>
                </mxCell>
                <mxCell id="479" value="res_in" style="rounded=0;whiteSpace=wrap;html=1;fillColor=#D5E8D4;strokeColor=#82B366;" vertex="1" parent="390">
                    <mxGeometry x="62" y="518.5" width="50" height="17" as="geometry"/>
                </mxCell>
                <mxCell id="480" value="res_out" style="rounded=0;whiteSpace=wrap;html=1;fillColor=#D5E8D4;strokeColor=#82b366;" vertex="1" parent="390">
                    <mxGeometry x="112" y="518.5" width="50" height="17" as="geometry"/>
                </mxCell>
                <mxCell id="481" value="" style="endArrow=classic;html=1;rounded=0;entryX=1;entryY=0.5;entryDx=0;entryDy=0;exitX=0;exitY=0.5;exitDx=0;exitDy=0;" edge="1" parent="390" source="479" target="445">
                    <mxGeometry width="50" height="50" relative="1" as="geometry">
                        <mxPoint x="33.730000000000004" y="534.75" as="sourcePoint"/>
                        <mxPoint x="-16.27" y="532.75" as="targetPoint"/>
                    </mxGeometry>
                </mxCell>
                <mxCell id="482" value="" style="group" vertex="1" connectable="0" parent="390">
                    <mxGeometry x="234" y="510" width="80" height="110" as="geometry"/>
                </mxCell>
                <mxCell id="483" value="d_1_resexc" style="ellipse;whiteSpace=wrap;html=1;aspect=fixed;fillColor=#1D911D;strokeColor=#82b366;" vertex="1" parent="482">
                    <mxGeometry y="30" width="80" height="80" as="geometry"/>
                </mxCell>
                <mxCell id="484" value="res_di" style="rounded=0;whiteSpace=wrap;html=1;fillColor=#1D911D;strokeColor=#82b366;" vertex="1" parent="482">
                    <mxGeometry x="15" width="50" height="30" as="geometry"/>
                </mxCell>
                <mxCell id="485" value="demand_resexc_1" style="rounded=1;whiteSpace=wrap;html=1;" vertex="1" parent="390">
                    <mxGeometry x="116" y="621" width="106" height="30" as="geometry"/>
                </mxCell>
                <mxCell id="486" value="flow_d" style="rounded=0;whiteSpace=wrap;html=1;fillColor=#d5e8d4;strokeColor=#82b366;" vertex="1" parent="390">
                    <mxGeometry x="131" y="591" width="50" height="30" as="geometry"/>
                </mxCell>
                <mxCell id="487" value="" style="endArrow=classic;html=1;rounded=0;entryX=0;entryY=0.75;entryDx=0;entryDy=0;exitX=0.5;exitY=0;exitDx=0;exitDy=0;" edge="1" parent="390" source="486" target="484">
                    <mxGeometry width="50" height="50" relative="1" as="geometry">
                        <mxPoint x="276" y="735.5" as="sourcePoint"/>
                        <mxPoint x="219" y="707.5" as="targetPoint"/>
                    </mxGeometry>
                </mxCell>
                <mxCell id="488" value="Converter_res_capa" style="rounded=1;whiteSpace=wrap;html=1;" vertex="1" parent="390">
                    <mxGeometry x="65.00000000000001" y="420" width="113.73" height="30" as="geometry"/>
                </mxCell>
                <mxCell id="489" value="capa_d" style="rounded=0;whiteSpace=wrap;html=1;fillColor=#d5e8d4;strokeColor=#82b366;" vertex="1" parent="390">
                    <mxGeometry x="79.99999999999999" y="390" width="50" height="30" as="geometry"/>
                </mxCell>
                <mxCell id="490" value="res_d" style="rounded=0;whiteSpace=wrap;html=1;fillColor=#d5e8d4;strokeColor=#82b366;" vertex="1" parent="390">
                    <mxGeometry x="92.99999999999999" y="450" width="50" height="30" as="geometry"/>
                </mxCell>
                <mxCell id="491" value="Converter_res_capa" style="rounded=1;whiteSpace=wrap;html=1;" vertex="1" parent="390">
                    <mxGeometry x="200" y="420" width="113.73" height="30" as="geometry"/>
                </mxCell>
                <mxCell id="492" value="capa_d" style="rounded=0;whiteSpace=wrap;html=1;fillColor=#d5e8d4;strokeColor=#82b366;" vertex="1" parent="390">
                    <mxGeometry x="215" y="390" width="50" height="30" as="geometry"/>
                </mxCell>
                <mxCell id="493" value="res_d" style="rounded=0;whiteSpace=wrap;html=1;fillColor=#d5e8d4;strokeColor=#82b366;" vertex="1" parent="390">
                    <mxGeometry x="228" y="450" width="50" height="30" as="geometry"/>
                </mxCell>
                <mxCell id="494" value="" style="endArrow=classic;html=1;rounded=0;entryX=0;entryY=0.5;entryDx=0;entryDy=0;exitX=0.5;exitY=1;exitDx=0;exitDy=0;" edge="1" parent="390" source="493" target="459">
                    <mxGeometry width="50" height="50" relative="1" as="geometry">
                        <mxPoint x="370" y="518.5" as="sourcePoint"/>
                        <mxPoint x="442" y="569.5" as="targetPoint"/>
                    </mxGeometry>
                </mxCell>
                <mxCell id="495" value="Converter_res_capa" style="rounded=1;whiteSpace=wrap;html=1;" vertex="1" parent="390">
                    <mxGeometry x="406.27" y="420" width="113.73" height="30" as="geometry"/>
                </mxCell>
                <mxCell id="496" value="capa_d" style="rounded=0;whiteSpace=wrap;html=1;fillColor=#d5e8d4;strokeColor=#82b366;" vertex="1" parent="390">
                    <mxGeometry x="421.27" y="390" width="50" height="30" as="geometry"/>
                </mxCell>
                <mxCell id="497" value="res_d" style="rounded=0;whiteSpace=wrap;html=1;fillColor=#d5e8d4;strokeColor=#82b366;" vertex="1" parent="390">
                    <mxGeometry x="434.27" y="450" width="50" height="30" as="geometry"/>
                </mxCell>
                <mxCell id="498" value="Converter_res_capa" style="rounded=1;whiteSpace=wrap;html=1;" vertex="1" parent="390">
                    <mxGeometry x="523.13" y="420" width="113.73" height="30" as="geometry"/>
                </mxCell>
                <mxCell id="499" value="capa_d" style="rounded=0;whiteSpace=wrap;html=1;fillColor=#d5e8d4;strokeColor=#82b366;" vertex="1" parent="390">
                    <mxGeometry x="538.13" y="390" width="50" height="30" as="geometry"/>
                </mxCell>
                <mxCell id="500" value="res_d" style="rounded=0;whiteSpace=wrap;html=1;fillColor=#d5e8d4;strokeColor=#82b366;" vertex="1" parent="390">
                    <mxGeometry x="551.13" y="450" width="50" height="30" as="geometry"/>
                </mxCell>
                <mxCell id="501" value="" style="endArrow=classic;html=1;rounded=0;entryX=0.5;entryY=0;entryDx=0;entryDy=0;exitX=0;exitY=0.75;exitDx=0;exitDy=0;" edge="1" parent="390" source="500" target="459">
                    <mxGeometry width="50" height="50" relative="1" as="geometry">
                        <mxPoint x="427" y="379" as="sourcePoint"/>
                        <mxPoint x="548" y="408" as="targetPoint"/>
                    </mxGeometry>
                </mxCell>
                <mxCell id="502" value="" style="endArrow=classic;html=1;rounded=0;exitX=0;exitY=0.5;exitDx=0;exitDy=0;entryX=1;entryY=0.25;entryDx=0;entryDy=0;" edge="1" parent="390" source="497" target="484">
                    <mxGeometry width="50" height="50" relative="1" as="geometry">
                        <mxPoint x="382" y="379" as="sourcePoint"/>
                        <mxPoint x="431" y="408" as="targetPoint"/>
                    </mxGeometry>
                </mxCell>
                <mxCell id="503" value="" style="endArrow=classic;html=1;rounded=0;exitX=0.5;exitY=0;exitDx=0;exitDy=0;" edge="1" parent="1" source="419">
                    <mxGeometry width="50" height="50" relative="1" as="geometry">
                        <mxPoint x="476.73" y="1400" as="sourcePoint"/>
                        <mxPoint x="649.73" y="1310" as="targetPoint"/>
                    </mxGeometry>
                </mxCell>
                <mxCell id="504" value="" style="endArrow=classic;html=1;rounded=0;exitX=0.5;exitY=0;exitDx=0;exitDy=0;" edge="1" parent="1" source="428">
                    <mxGeometry width="50" height="50" relative="1" as="geometry">
                        <mxPoint x="828.73" y="1500" as="sourcePoint"/>
                        <mxPoint x="959.73" y="1300" as="targetPoint"/>
                    </mxGeometry>
                </mxCell>
                <mxCell id="505" value="" style="group" vertex="1" connectable="0" parent="1">
                    <mxGeometry x="249.99999999999997" y="1812.25" width="90" height="90" as="geometry"/>
                </mxCell>
                <mxCell id="506" value="demand_resint_1" style="rounded=1;whiteSpace=wrap;html=1;" vertex="1" parent="505">
                    <mxGeometry x="-30.27" y="5.5" width="100.27" height="30" as="geometry"/>
                </mxCell>
                <mxCell id="507" value="res_d" style="rounded=0;whiteSpace=wrap;html=1;fillColor=#d5e8d4;strokeColor=#82b366;" vertex="1" parent="505">
                    <mxGeometry x="-10.269999999999982" y="-22.25" width="50" height="30" as="geometry"/>
                </mxCell>
                <mxCell id="508" value="" style="endArrow=classic;html=1;rounded=0;entryX=0;entryY=0.75;entryDx=0;entryDy=0;" edge="1" parent="1" source="507" target="445">
                    <mxGeometry width="50" height="50" relative="1" as="geometry">
                        <mxPoint x="292.2300000000005" y="1780" as="sourcePoint"/>
                        <mxPoint x="1209" y="1747.25" as="targetPoint"/>
                    </mxGeometry>
                </mxCell>
                <mxCell id="509" value="" style="endArrow=classic;html=1;rounded=0;exitX=1;exitY=0.5;exitDx=0;exitDy=0;" edge="1" parent="1" source="490">
                    <mxGeometry width="50" height="50" relative="1" as="geometry">
                        <mxPoint x="625.73" y="1579" as="sourcePoint"/>
                        <mxPoint x="680" y="1710" as="targetPoint"/>
                    </mxGeometry>
                </mxCell>
                <mxCell id="510" value="Cohérence" style="rounded=1;whiteSpace=wrap;html=1;" vertex="1" parent="1">
                    <mxGeometry x="556.27" y="1970" width="113.73" height="30" as="geometry"/>
                </mxCell>
                <mxCell id="511" value="res_d" style="rounded=0;whiteSpace=wrap;html=1;fillColor=#d5e8d4;strokeColor=#82b366;" vertex="1" parent="1">
                    <mxGeometry x="580" y="1940" width="50" height="30" as="geometry"/>
                </mxCell>
                <mxCell id="512" value="" style="endArrow=classic;html=1;rounded=0;exitX=0.5;exitY=1;exitDx=0;exitDy=0;" edge="1" parent="1" source="490" target="511">
                    <mxGeometry width="50" height="50" relative="1" as="geometry">
                        <mxPoint x="567" y="1675" as="sourcePoint"/>
                        <mxPoint x="690" y="1720" as="targetPoint"/>
                    </mxGeometry>
                </mxCell>
                <mxCell id="513" value="" style="endArrow=classic;html=1;rounded=0;exitX=0.5;exitY=1;exitDx=0;exitDy=0;" edge="1" parent="1" source="493">
                    <mxGeometry width="50" height="50" relative="1" as="geometry">
                        <mxPoint x="542" y="1690" as="sourcePoint"/>
                        <mxPoint x="610" y="1940" as="targetPoint"/>
                    </mxGeometry>
                </mxCell>
                <mxCell id="514" value="Cohérence" style="rounded=1;whiteSpace=wrap;html=1;" vertex="1" parent="1">
                    <mxGeometry x="840" y="1970" width="113.73" height="30" as="geometry"/>
                </mxCell>
                <mxCell id="515" value="res_d" style="rounded=0;whiteSpace=wrap;html=1;fillColor=#d5e8d4;strokeColor=#82b366;" vertex="1" parent="1">
                    <mxGeometry x="863.73" y="1940" width="50" height="30" as="geometry"/>
                </mxCell>
                <mxCell id="516" value="" style="endArrow=classic;html=1;rounded=0;exitX=0.25;exitY=1;exitDx=0;exitDy=0;entryX=0.5;entryY=0;entryDx=0;entryDy=0;" edge="1" parent="1" source="497" target="515">
                    <mxGeometry width="50" height="50" relative="1" as="geometry">
                        <mxPoint x="542" y="1690" as="sourcePoint"/>
                        <mxPoint x="611" y="1950" as="targetPoint"/>
                    </mxGeometry>
                </mxCell>
                <mxCell id="517" value="" style="endArrow=classic;html=1;rounded=0;exitX=0.5;exitY=1;exitDx=0;exitDy=0;entryX=0.75;entryY=0;entryDx=0;entryDy=0;" edge="1" parent="1" source="500" target="515">
                    <mxGeometry width="50" height="50" relative="1" as="geometry">
                        <mxPoint x="871" y="1690" as="sourcePoint"/>
                        <mxPoint x="899" y="1950" as="targetPoint"/>
                    </mxGeometry>
                </mxCell>
                <mxCell id="518" value="Demand : Model" style="swimlane;fontStyle=0;childLayout=stackLayout;horizontal=1;startSize=30;horizontalStack=0;resizeParent=1;resizeParentMax=0;resizeLast=0;collapsible=1;marginBottom=0;whiteSpace=wrap;html=1;fillColor=#CCFFCC;" vertex="1" parent="1">
                    <mxGeometry x="-192.75" y="-46.18" width="302.75" height="120" as="geometry"/>
                </mxCell>
                <mxCell id="519" value="d : Parameter" style="text;strokeColor=none;fillColor=none;align=left;verticalAlign=middle;spacingLeft=4;spacingRight=4;overflow=hidden;points=[[0,0.5],[1,0.5]];portConstraint=eastwest;rotatable=0;whiteSpace=wrap;html=1;" vertex="1" parent="518">
                    <mxGeometry y="30" width="302.75" height="30" as="geometry"/>
                </mxCell>
                <mxCell id="520" value="" style="endArrow=none;dashed=1;html=1;rounded=0;exitX=0;exitY=0.5;exitDx=0;exitDy=0;entryX=1;entryY=0.5;entryDx=0;entryDy=0;" edge="1" parent="518">
                    <mxGeometry width="50" height="50" relative="1" as="geometry">
                        <mxPoint y="58" as="sourcePoint"/>
                        <mxPoint x="220" y="58" as="targetPoint"/>
                    </mxGeometry>
                </mxCell>
                <mxCell id="521" value="flow_d : Flow" style="text;strokeColor=none;fillColor=none;align=left;verticalAlign=middle;spacingLeft=4;spacingRight=4;overflow=hidden;points=[[0,0.5],[1,0.5]];portConstraint=eastwest;rotatable=0;whiteSpace=wrap;html=1;" vertex="1" parent="518">
                    <mxGeometry y="60" width="302.75" height="30" as="geometry"/>
                </mxCell>
                <mxCell id="522" value="flow_d.F = -d" style="text;strokeColor=none;fillColor=none;align=left;verticalAlign=middle;spacingLeft=4;spacingRight=4;overflow=hidden;points=[[0,0.5],[1,0.5]];portConstraint=eastwest;rotatable=0;whiteSpace=wrap;html=1;" vertex="1" parent="518">
                    <mxGeometry y="90" width="302.75" height="30" as="geometry"/>
                </mxCell>
                <mxCell id="523" value="" style="endArrow=none;dashed=1;html=1;rounded=0;exitX=0;exitY=0.5;exitDx=0;exitDy=0;entryX=1;entryY=0.5;entryDx=0;entryDy=0;" edge="1" parent="518">
                    <mxGeometry width="50" height="50" relative="1" as="geometry">
                        <mxPoint y="89" as="sourcePoint"/>
                        <mxPoint x="220" y="89" as="targetPoint"/>
                    </mxGeometry>
                </mxCell>
                <mxCell id="524" value="&lt;div style=&quot;text-align: left;&quot;&gt;&lt;b&gt;Ce modèle est une alternative dans le cas où l'on souhaiterait que le modèle lien ne soit pas impacté par le nombre de réserves définies. En effet le nouveau port (capa) aurait toujours 2 Portfield, significatif de la réservation de capacité de la ligne dans chacun des sens. Le compromis est que la complexité augmente.&lt;/b&gt;&lt;/div&gt;&lt;div style=&quot;text-align: left;&quot;&gt;&lt;br&gt;&lt;/div&gt;&lt;font style=&quot;&quot;&gt;&lt;b style=&quot;&quot;&gt;&lt;font style=&quot;font-size: 12px;&quot;&gt;&lt;br&gt;&lt;/font&gt;&lt;br&gt;&lt;/b&gt;&lt;/font&gt;" style="text;html=1;strokeColor=none;fillColor=none;align=center;verticalAlign=middle;whiteSpace=wrap;rounded=0;" vertex="1" parent="1">
                    <mxGeometry x="570" y="2020" width="550" height="200" as="geometry"/>
                </mxCell>
                <mxCell id="525" value="&lt;div style=&quot;text-align: left;&quot;&gt;&lt;div style=&quot;margin-top: 3.84pt; margin-bottom: 0pt; margin-left: 0.31in; text-indent: -0.31in; direction: ltr; unicode-bidi: embed; word-break: normal;&quot;&gt;&lt;/div&gt;&lt;/div&gt;&lt;font style=&quot;&quot;&gt;&lt;div style=&quot;text-align: left;&quot;&gt;&lt;b style=&quot;background-color: initial; border-color: var(--border-color);&quot;&gt;Tous les modèles avec une partie en vert sont des modèles influencés par le nombre de réserves définies&lt;/b&gt;&lt;/div&gt;&lt;div style=&quot;text-align: left;&quot;&gt;&lt;b style=&quot;background-color: initial; border-color: var(--border-color);&quot;&gt;&lt;br&gt;&lt;/b&gt;&lt;/div&gt;&lt;div style=&quot;text-align: left;&quot;&gt;&lt;b style=&quot;background-color: initial; border-color: var(--border-color);&quot;&gt;3 options de modélisation étaient possibles:&lt;/b&gt;&lt;/div&gt;&lt;div style=&quot;text-align: left;&quot;&gt;&lt;b style=&quot;background-color: initial; border-color: var(--border-color);&quot;&gt;-Des ports pour les modèles liés aux réserves avec N (dans l'exemple N=4) Portfield&lt;/b&gt;&lt;/div&gt;&lt;div style=&quot;text-align: left;&quot;&gt;&lt;b style=&quot;background-color: initial; border-color: var(--border-color);&quot;&gt;-N (dans l'exemple N=4) ports pour chaque modèle liées aux réserves&lt;/b&gt;&lt;/div&gt;&lt;div style=&quot;text-align: left;&quot;&gt;&lt;b style=&quot;background-color: initial; border-color: var(--border-color);&quot;&gt;-N instanciation de modèles, avec du couplage entre les différentes instanciations de modèles (par exemple pour un modèle production, la puissance accessible est influencé par la somme des réserves contractualisées à la hausse et la baisse)&lt;/b&gt;&lt;/div&gt;&lt;div style=&quot;text-align: left;&quot;&gt;&lt;b style=&quot;background-color: initial; border-color: var(--border-color);&quot;&gt;&lt;br&gt;&lt;/b&gt;&lt;/div&gt;&lt;div style=&quot;text-align: left;&quot;&gt;&lt;b style=&quot;background-color: initial; border-color: var(--border-color);&quot;&gt;Le choix 1 a été retenu&amp;nbsp;&lt;/b&gt;&lt;/div&gt;&lt;div style=&quot;text-align: left;&quot;&gt;&lt;b style=&quot;background-color: initial; border-color: var(--border-color);&quot;&gt;&lt;br&gt;&lt;/b&gt;&lt;/div&gt;&lt;/font&gt;" style="text;html=1;strokeColor=none;fillColor=none;align=center;verticalAlign=middle;whiteSpace=wrap;rounded=0;" vertex="1" parent="1">
                    <mxGeometry x="710" y="870" width="710" height="200" as="geometry"/>
                </mxCell>
                <mxCell id="526" value="Objective fonction contribution" style="swimlane;fontStyle=0;childLayout=stackLayout;horizontal=1;startSize=30;horizontalStack=0;resizeParent=1;resizeParentMax=0;resizeLast=0;collapsible=1;marginBottom=0;whiteSpace=wrap;html=1;fillColor=#5964FF;" vertex="1" parent="1">
                    <mxGeometry x="250" y="108.82" width="320" height="140" as="geometry"/>
                </mxCell>
                <mxCell id="527" value="La contribution à la fonction objectif correspond à la sommes du volume de spillage/défaillance des modèles &quot;Node&quot; et des modèles &quot;Reserve district&quot; multiplié par les coûts associés" style="text;strokeColor=none;fillColor=none;align=left;verticalAlign=middle;spacingLeft=4;spacingRight=4;overflow=hidden;points=[[0,0.5],[1,0.5]];portConstraint=eastwest;rotatable=0;whiteSpace=wrap;html=1;" vertex="1" parent="526">
                    <mxGeometry y="30" width="320" height="110" as="geometry"/>
                </mxCell>
            </root>
        </mxGraphModel>
    </diagram>
</mxfile>